<svg width="390" height="60" viewBox="0 0 390 60" fill="none" xmlns="http://www.w3.org/2000/svg">
<rect x="20" y="12" width="109" height="32" rx="16" fill="#1890FF"/>
<mask id="mask0_42_13211" style="mask-type:alpha" maskUnits="userSpaceOnUse" x="34" y="18" width="20" height="20">
<rect x="34" y="18" width="20" height="20" fill="#D9D9D9"/>
</mask>
<g mask="url(#mask0_42_13211)">
<path d="M38.6795 33.4167V34.2228C38.6795 34.4631 38.5962 34.6667 38.4295 34.8333C38.2629 35 38.0521 35.0833 37.7972 35.0833C37.5521 35.0833 37.3441 34.9976 37.1732 34.8262C37.0022 34.6549 36.9167 34.4468 36.9167 34.2019V28.0641L38.6187 23.2084C38.6806 23.0171 38.7944 22.8652 38.96 22.7525C39.1256 22.6397 39.3099 22.5834 39.5129 22.5834H48.5193C48.7143 22.5834 48.8914 22.6407 49.0504 22.7552C49.2095 22.8698 49.3199 23.0209 49.3814 23.2084L51.0834 28.0641V34.2228C51.0834 34.4631 51 34.6667 50.8334 34.8333C50.6667 35 50.4559 35.0833 50.201 35.0833C49.9559 35.0833 49.7479 34.9976 49.577 34.8262C49.4061 34.6549 49.3206 34.4468 49.3206 34.2019V33.4167H38.6795ZM38.6731 26.8142H49.327L48.2757 23.8334H39.7244L38.6731 26.8142ZM40.2199 31.2051C40.5231 31.2051 40.7802 31.099 40.9912 30.8867C41.2022 30.6745 41.3077 30.4167 41.3077 30.1135C41.3077 29.8103 41.2016 29.5532 40.9894 29.3422C40.7771 29.1312 40.5193 29.0257 40.2161 29.0257C39.9129 29.0257 39.6558 29.1318 39.4448 29.3441C39.2338 29.5563 39.1283 29.8141 39.1283 30.1173C39.1283 30.4205 39.2344 30.6776 39.4467 30.8886C39.6589 31.0996 39.9167 31.2051 40.2199 31.2051ZM47.784 31.2051C48.0872 31.2051 48.3443 31.099 48.5554 30.8867C48.7664 30.6745 48.8719 30.4167 48.8719 30.1135C48.8719 29.8103 48.7657 29.5532 48.5535 29.3422C48.3412 29.1312 48.0835 29.0257 47.7802 29.0257C47.477 29.0257 47.2199 29.1318 47.0089 29.3441C46.7979 29.5563 46.6924 29.8141 46.6924 30.1173C46.6924 30.4205 46.7985 30.6776 47.0108 30.8886C47.223 31.0996 47.4808 31.2051 47.784 31.2051Z" fill="white"/>
</g>
<path d="M58.9375 33V31.8281L62.6143 28.1221C63.7788 26.9136 64.3574 26.2397 64.3574 25.3096C64.3574 24.2622 63.5078 23.5957 62.3945 23.5957C61.2153 23.5957 60.4683 24.3428 60.4609 25.4707H58.9375C58.9229 23.5298 60.4023 22.248 62.4238 22.248C64.4673 22.248 65.8809 23.5444 65.8955 25.2656C65.8809 26.4521 65.3242 27.397 63.332 29.3525L61.1787 31.5352V31.623H66.0713V33H58.9375ZM71.9236 24.46C71.909 26.855 73.3592 29.272 75.3953 30.1729L74.5604 31.2715C73.0516 30.5537 71.8577 29.0815 71.2425 27.2871C70.6346 29.2134 69.4261 30.7954 67.8514 31.5645L67.0018 30.3926C69.0672 29.4771 70.5174 26.9648 70.5174 24.46V22.2188H71.9236V24.46ZM76.5818 34.2744V21.1201H77.9734V34.2744H76.5818ZM90.0807 21.1201V25.002H91.985V26.1592H90.0807V30.6562H88.6744V21.1201H90.0807ZM79.7535 28.1074C82.8297 27.1846 84.734 25.4341 85.005 23.2734H80.3102V22.1162H86.5211C86.5211 25.5586 84.1773 28.0562 80.3395 29.2207L79.7535 28.1074ZM81.7457 33.9668V29.6748H83.152V32.8389H90.6227V33.9668H81.7457ZM100.277 22.3945V33H98.6506V24.0059H98.592L96.0578 25.6611V24.123L98.6945 22.3945H100.277ZM114.215 27.9902V29.1035H109V31.5205H107.623V29.1035H102.203V27.9902H114.215ZM103.697 33.9668V30.3779H105.074V32.8389H112.882V33.9668H103.697ZM103.785 26.833V21.5303H105.162V23.127H111.241V21.5303H112.633V26.833H103.785ZM105.162 25.7197H111.241V24.167H105.162V25.7197Z" fill="white"/>
<rect x="167.25" y="12" width="48" height="32" rx="16" fill="white"/>
<mask id="mask1_42_13211" style="mask-type:alpha" maskUnits="userSpaceOnUse" x="181" y="18" width="21" height="20">
<rect x="181.25" y="18" width="20" height="20" fill="#D9D9D9"/>
</mask>
<g mask="url(#mask1_42_13211)">
<path d="M186.912 34.859C186.793 34.859 186.693 34.8184 186.612 34.7374C186.531 34.6563 186.49 34.5564 186.49 34.4375C186.49 34.3795 186.508 34.3128 186.544 34.2374C186.58 34.162 186.628 34.1069 186.688 34.0721L187.66 33.4167C186.916 33.4167 186.286 33.1594 185.772 32.645C185.257 32.1306 185 31.5011 185 30.7564V23C185 21.9808 185.495 21.2399 186.484 20.7773C187.473 20.3147 189.062 20.0834 191.25 20.0834C193.49 20.0834 195.091 20.3082 196.055 20.7579C197.018 21.2075 197.5 21.9549 197.5 23V30.7564C197.5 31.5011 197.243 32.1306 196.728 32.645C196.214 33.1594 195.584 33.4167 194.84 33.4167L195.812 34.0721C195.872 34.1063 195.92 34.1576 195.956 34.2259C195.992 34.2943 196.01 34.3648 196.01 34.4375C196.01 34.5564 195.969 34.6563 195.888 34.7374C195.807 34.8184 195.707 34.859 195.588 34.859H186.912ZM186.25 26.75H190.625V23.641H186.25V26.75ZM191.875 26.75H196.25V23.641H191.875V26.75ZM188.335 31.1731C188.638 31.1731 188.896 31.0669 189.107 30.8547C189.318 30.6424 189.423 30.3847 189.423 30.0815C189.423 29.7782 189.317 29.5211 189.105 29.3101C188.892 29.0991 188.635 28.9936 188.331 28.9936C188.028 28.9936 187.771 29.0998 187.56 29.312C187.349 29.5243 187.244 29.782 187.244 30.0852C187.244 30.3885 187.35 30.6456 187.562 30.8566C187.774 31.0676 188.032 31.1731 188.335 31.1731ZM194.169 31.1731C194.472 31.1731 194.729 31.0669 194.94 30.8547C195.151 30.6424 195.256 30.3847 195.256 30.0815C195.256 29.7782 195.15 29.5211 194.938 29.3101C194.726 29.0991 194.468 28.9936 194.165 28.9936C193.862 28.9936 193.604 29.0998 193.393 29.312C193.182 29.5243 193.077 29.782 193.077 30.0852C193.077 30.3885 193.183 30.6456 193.395 30.8566C193.608 31.0676 193.865 31.1731 194.169 31.1731Z" fill="#595959"/>
</g>
<rect x="287.75" y="12" width="48" height="32" rx="16" fill="white"/>
<mask id="mask2_42_13211" style="mask-type:alpha" maskUnits="userSpaceOnUse" x="301" y="18" width="21" height="20">
<rect x="301.75" y="18" width="20" height="20" fill="#D9D9D9"/>
</mask>
<g mask="url(#mask2_42_13211)">
<path d="M313 22.4551C312.574 22.4551 312.211 22.3053 311.911 22.0056C311.611 21.7059 311.461 21.3429 311.461 20.9166C311.461 20.4904 311.611 20.1274 311.911 19.8277C312.211 19.528 312.574 19.3782 313 19.3782C313.426 19.3782 313.789 19.528 314.089 19.8277C314.389 20.1274 314.538 20.4904 314.538 20.9166C314.538 21.3429 314.389 21.7059 314.089 22.0056C313.789 22.3053 313.426 22.4551 313 22.4551ZM308.671 36.9583C308.446 36.9583 308.266 36.88 308.131 36.7235C307.995 36.567 307.955 36.3803 308.008 36.1634L310.189 25.064L308.368 25.7996C308.32 25.821 308.282 25.8517 308.252 25.8918C308.223 25.9318 308.208 25.9786 308.208 26.032V28C308.208 28.1773 308.148 28.3258 308.029 28.4455C307.909 28.5651 307.761 28.6249 307.583 28.6249C307.406 28.6249 307.257 28.5651 307.138 28.4455C307.018 28.3258 306.958 28.1773 306.958 28V26.0448C306.958 25.7436 307.041 25.4674 307.205 25.2163C307.37 24.9653 307.596 24.7783 307.883 24.6554L310.966 23.3574C311.348 23.196 311.725 23.1653 312.099 23.2652C312.473 23.3651 312.77 23.5919 312.99 23.9455L313.816 25.2708C314.126 25.7729 314.541 26.2083 315.059 26.5769C315.577 26.9455 316.165 27.188 316.822 27.3045C316.977 27.3269 317.108 27.3993 317.215 27.5216C317.321 27.6439 317.375 27.7783 317.375 27.9247C317.375 28.1191 317.305 28.2804 317.166 28.4086C317.026 28.5368 316.868 28.5854 316.691 28.5544C315.971 28.4433 315.278 28.192 314.614 27.8004C313.95 27.4089 313.378 26.8691 312.896 26.181L312.276 29.3141L313.577 30.5609C313.727 30.7115 313.843 30.8782 313.922 31.0609C314.002 31.2436 314.042 31.4396 314.042 31.649V36.3333C314.042 36.5106 313.982 36.6591 313.862 36.7788C313.742 36.8985 313.594 36.9583 313.417 36.9583C313.239 36.9583 313.091 36.8985 312.971 36.7788C312.851 36.6591 312.792 36.5106 312.792 36.3333V32.0945L310.705 30.0993L309.263 36.4855C309.232 36.6148 309.162 36.7259 309.054 36.8189C308.945 36.9118 308.818 36.9583 308.671 36.9583Z" fill="#595959"/>
</g>
</svg>
