<svg width="390" height="48" viewBox="0 0 390 48" fill="none" xmlns="http://www.w3.org/2000/svg">
    <rect x="20" y="12" width="24" height="24" rx="12" fill="#F5F5F5"/>
    <path d="M28 29.6667C27.7222 29.6667 27.4862 29.5694 27.292 29.3747C27.0973 29.1805 27 28.9445 27 28.6667V22.6667C27 22.5112 27.036 22.3612 27.108 22.2167C27.1804 22.0723 27.2778 21.9556 27.4 21.8667L31.4 18.8501C31.4889 18.7834 31.5833 18.7361 31.6833 18.7081C31.7833 18.6805 31.8889 18.6667 32 18.6667C32.1111 18.6667 32.2167 18.6805 32.3167 18.7081C32.4167 18.7361 32.5111 18.7834 32.6 18.8501L36.6 21.8667C36.7222 21.9556 36.8193 22.0723 36.8913 22.2167C36.9638 22.3612 37 22.5112 37 22.6667V28.6667C37 28.9445 36.9027 29.1805 36.708 29.3747C36.5138 29.5694 36.2778 29.6667 36 29.6667H33.2667V25.2001H30.7333V29.6667H28Z" fill="#262626"/>
    <path d="M51.0938 29V19.1016H52.3242V23.5039H57.5605V19.1016H58.8047V29H57.5605V24.584H52.3242V29H51.0938ZM63.5833 29.1504C61.5598 29.1572 60.1927 27.626 60.1927 25.3223C60.1927 23.0049 61.5598 21.4805 63.5833 21.4805C65.5999 21.4805 66.9534 23.0049 66.9466 25.3223C66.9534 27.626 65.5999 29.1572 63.5833 29.1504ZM61.3684 25.3223C61.3753 26.8057 62.0725 28.1113 63.5833 28.1113C65.0804 28.1113 65.7708 26.8057 65.7708 25.3223C65.7708 23.8457 65.0804 22.5195 63.5833 22.5195C62.0725 22.5195 61.3753 23.8457 61.3684 25.3223ZM68.2115 29V21.5762H69.3463V22.7383H69.442C69.7496 21.9453 70.4673 21.4805 71.438 21.4805C72.4088 21.4805 73.0718 21.9453 73.4205 22.7383H73.5025C73.8785 21.9727 74.6646 21.4805 75.731 21.4805C77.0504 21.4805 78.0005 22.2871 78.0005 24.0371V29H76.8248V24.0508C76.8179 22.957 76.1343 22.5332 75.3209 22.5332C74.2886 22.5332 73.7007 23.2305 73.6939 24.1738V29H72.5045V23.9277C72.5113 23.0938 71.9097 22.5332 71.0552 22.5332C70.1666 22.5332 69.3873 23.2852 69.3873 24.3652V29H68.2115ZM82.7245 29.1504C80.578 29.1572 79.2518 27.626 79.2518 25.3496C79.2518 23.0664 80.5985 21.4805 82.6151 21.4805C84.1737 21.4805 85.8211 22.4375 85.8143 25.1855V25.6777H80.4276C80.4891 27.25 81.4051 28.1113 82.7245 28.1113C83.6131 28.1113 84.1737 27.7217 84.4471 27.2637H85.7049C85.3563 28.3916 84.2557 29.1572 82.7245 29.1504ZM80.4344 24.6797H84.6248C84.618 23.4424 83.8387 22.5195 82.6151 22.5195C81.3299 22.5195 80.5164 23.5312 80.4344 24.6797Z" fill="#262626"/>
    <path fill-rule="evenodd" clip-rule="evenodd" d="M99 30V18H100V30H99Z" fill="#F0F0F0"/>
    <rect x="112" y="12" width="24" height="24" rx="12" fill="#F5F5F5"/>
    <path fill-rule="evenodd" clip-rule="evenodd" d="M129.333 17.5999H118.667V30.3999H122.559V26.8444H125.403V30.3999H129.333V17.5999ZM121.847 20.4443H123.27V21.8666H121.847V20.4443ZM123.27 23.2888H121.847V24.711H123.27V23.2888ZM126.114 23.2888H124.692V24.711H126.114V23.2888ZM126.114 20.4443H124.692V21.8666H126.114V20.4443Z" fill="#262626"/>
    <path d="M151.461 24.0508C151.468 27.1816 149.622 29.1367 147.086 29.1367C144.543 29.1367 142.704 27.1816 142.711 24.0508C142.704 20.9199 144.543 18.9648 147.086 18.9648C149.622 18.9648 151.468 20.9199 151.461 24.0508ZM143.9 24.0508C143.907 26.6006 145.295 27.9814 147.086 27.9883C148.877 27.9814 150.265 26.6006 150.271 24.0508C150.265 21.4941 148.877 20.1133 147.086 20.1133C145.295 20.1133 143.907 21.4941 143.9 24.0508ZM156.158 21.5762V22.5605H154.517V29H153.327V22.5605H152.138V21.5762H153.327V20.5645C153.334 19.3613 154.134 18.6367 155.447 18.6367C155.734 18.6367 156.075 18.6709 156.322 18.7188V19.7715C156.069 19.7305 155.857 19.7168 155.706 19.7168C154.879 19.7168 154.51 20.0586 154.517 20.8242V21.5762H156.158ZM160.594 21.5762V22.5605H158.954V29H157.764V22.5605H156.575V21.5762H157.764V20.5645C157.771 19.3613 158.571 18.6367 159.883 18.6367C160.17 18.6367 160.512 18.6709 160.758 18.7188V19.7715C160.505 19.7305 160.294 19.7168 160.143 19.7168C159.316 19.7168 158.947 20.0586 158.954 20.8242V21.5762H160.594ZM161.709 29V21.5762H162.885V29H161.709ZM161.476 19.5664C161.47 19.1289 161.846 18.7803 162.297 18.7871C162.748 18.7803 163.124 19.1289 163.131 19.5664C163.124 19.9971 162.748 20.3457 162.297 20.3457C161.846 20.3457 161.47 19.9971 161.476 19.5664ZM167.513 29.1504C165.407 29.1572 164.122 27.5508 164.122 25.3223C164.122 23.0664 165.469 21.4805 167.485 21.4805C169.065 21.4805 170.254 22.417 170.439 23.8184H169.263C169.092 23.1416 168.504 22.5195 167.513 22.5195C166.187 22.5195 165.305 23.6133 165.298 25.2812C165.305 26.9971 166.166 28.0977 167.513 28.0977C168.388 28.0977 169.058 27.626 169.263 26.8125H170.439C170.254 28.1387 169.16 29.1572 167.513 29.1504ZM174.725 29.1504C172.579 29.1572 171.252 27.626 171.252 25.3496C171.252 23.0664 172.599 21.4805 174.616 21.4805C176.174 21.4805 177.822 22.4375 177.815 25.1855V25.6777H172.428C172.49 27.25 173.406 28.1113 174.725 28.1113C175.614 28.1113 176.174 27.7217 176.448 27.2637H177.705C177.357 28.3916 176.256 29.1572 174.725 29.1504ZM172.435 24.6797H176.625C176.619 23.4424 175.839 22.5195 174.616 22.5195C173.33 22.5195 172.517 23.5312 172.435 24.6797Z" fill="#262626"/>
    <rect x="284" y="12" width="24" height="24" rx="12" fill="#FFF1F0"/>
    <g clip-path="url(#clip0_159_1779)">
        <path fill-rule="evenodd" clip-rule="evenodd" d="M295.995 20.6608C295 18.6601 292.44 17.7733 290.77 19.2003C289.1 20.6272 288.865 23.0129 290.176 24.7005C291.266 26.1037 294.566 29.063 295.648 30.0209C295.769 30.128 295.829 30.1816 295.9 30.2027C295.962 30.221 296.029 30.221 296.091 30.2027C296.161 30.1816 296.222 30.128 296.343 30.0209C297.424 29.063 300.724 26.1037 301.815 24.7005C303.126 23.0129 302.92 20.6122 301.221 19.2003C299.522 17.7883 297 18.6601 295.995 20.6608Z" fill="#FF4D4F"/>
    </g>
    <path d="M315.094 29V19.1016H321.055V20.1953H316.324V23.5039H320.604V24.584H316.324V29H315.094ZM322.101 26.8945C322.101 25.1924 323.605 24.8027 324.89 24.707C325.368 24.6729 326.565 24.6045 326.9 24.5977V23.9961C326.9 23.0527 326.339 22.5059 325.218 22.5059C324.282 22.5059 323.714 22.9365 323.55 23.5039H322.32C322.47 22.3076 323.632 21.4805 325.273 21.4805C326.243 21.4805 328.069 21.7676 328.062 24.1055V29H326.9V27.9883H326.845C326.599 28.4873 325.922 29.1709 324.63 29.1777C323.222 29.1709 322.101 28.3438 322.101 26.8945ZM323.277 26.9492C323.283 27.7354 323.933 28.1318 324.835 28.125C326.161 28.1318 326.9 27.2432 326.9 26.3066V25.5615C326.551 25.582 325.382 25.6709 325.027 25.6914C323.96 25.7598 323.283 26.1357 323.277 26.9492ZM335.506 21.5762L332.758 29H331.542L328.807 21.5762H330.092L332.116 27.4688H332.198L334.221 21.5762H335.506ZM339.287 29.1504C337.264 29.1572 335.896 27.626 335.896 25.3223C335.896 23.0049 337.264 21.4805 339.287 21.4805C341.304 21.4805 342.657 23.0049 342.65 25.3223C342.657 27.626 341.304 29.1572 339.287 29.1504ZM337.072 25.3223C337.079 26.8057 337.776 28.1113 339.287 28.1113C340.784 28.1113 341.474 26.8057 341.474 25.3223C341.474 23.8457 340.784 22.5195 339.287 22.5195C337.776 22.5195 337.079 23.8457 337.072 25.3223ZM343.915 29V21.5762H345.05V22.7109H345.132C345.399 21.959 346.171 21.46 347.046 21.4531C347.224 21.46 347.525 21.4668 347.661 21.4805V22.6699C347.572 22.6494 347.258 22.5879 346.95 22.5879C345.884 22.5879 345.091 23.3262 345.091 24.3242V29H343.915ZM348.53 29V21.5762H349.705V29H348.53ZM348.297 19.5664C348.29 19.1289 348.666 18.7803 349.118 18.7871C349.569 18.7803 349.945 19.1289 349.952 19.5664C349.945 19.9971 349.569 20.3457 349.118 20.3457C348.666 20.3457 348.29 19.9971 348.297 19.5664ZM354.539 21.5762V22.5605H352.98V26.8672C352.973 27.8174 353.452 27.9746 353.951 27.9746C354.163 27.9746 354.477 27.9541 354.648 27.9473V29.041C354.464 29.0684 354.176 29.0957 353.828 29.0957C352.837 29.0957 351.798 28.4805 351.791 27.168V22.5605H350.67V21.5762H351.791V19.7988H352.98V21.5762H354.539ZM358.811 29.1504C356.665 29.1572 355.339 27.626 355.339 25.3496C355.339 23.0664 356.686 21.4805 358.702 21.4805C360.261 21.4805 361.908 22.4375 361.901 25.1855V25.6777H356.515C356.576 27.25 357.492 28.1113 358.811 28.1113C359.7 28.1113 360.261 27.7217 360.534 27.2637H361.792C361.443 28.3916 360.343 29.1572 358.811 29.1504ZM356.521 24.6797H360.712C360.705 23.4424 359.926 22.5195 358.702 22.5195C357.417 22.5195 356.603 23.5312 356.521 24.6797ZM367.281 23.5039C367.117 22.8887 366.646 22.4854 365.778 22.4785C364.862 22.4854 364.212 22.9775 364.205 23.5996C364.212 24.0918 364.609 24.4268 365.477 24.6387L366.584 24.9121C367.91 25.2266 368.56 25.8896 368.567 26.9219C368.56 28.207 367.514 29.1572 365.655 29.1504C363.987 29.1572 362.995 28.4121 362.797 27.0586H364.028C364.164 27.7832 364.691 28.1318 365.627 28.125C366.687 28.1318 367.35 27.6875 367.35 26.9902C367.35 26.4639 366.974 26.1221 366.133 25.9238L365.012 25.6641C363.72 25.3633 363.03 24.6592 363.03 23.668C363.03 22.3965 364.144 21.4805 365.778 21.4805C367.316 21.4805 368.28 22.3008 368.43 23.5039H367.281Z" fill="#14161A"/>
    <defs>
        <clipPath id="clip0_159_1779">
            <rect width="16" height="16" fill="white" transform="translate(288 16)"/>
        </clipPath>
    </defs>
</svg>
