<svg width="390" height="60" viewBox="0 0 390 60" fill="none" xmlns="http://www.w3.org/2000/svg">
<rect width="390" height="60" fill="white"/>
<rect x="37.5" y="12" width="79" height="32" rx="16" fill="#1890FF"/>
<mask id="mask0_42_14529" style="mask-type:alpha" maskUnits="userSpaceOnUse" x="51" y="18" width="21" height="20">
<rect x="51.5" y="18" width="20" height="20" fill="#D9D9D9"/>
</mask>
<g mask="url(#mask0_42_14529)">
<path d="M56.1795 33.4167V34.2228C56.1795 34.4631 56.0962 34.6667 55.9295 34.8333C55.7629 35 55.5521 35.0833 55.2972 35.0833C55.0521 35.0833 54.8441 34.9976 54.6732 34.8262C54.5022 34.6549 54.4167 34.4468 54.4167 34.2019V28.0641L56.1187 23.2084C56.1806 23.0171 56.2944 22.8652 56.46 22.7525C56.6256 22.6397 56.8099 22.5834 57.0129 22.5834H66.0193C66.2143 22.5834 66.3914 22.6407 66.5504 22.7552C66.7095 22.8698 66.8199 23.0209 66.8814 23.2084L68.5834 28.0641V34.2228C68.5834 34.4631 68.5 34.6667 68.3334 34.8333C68.1667 35 67.9559 35.0833 67.701 35.0833C67.4559 35.0833 67.2479 34.9976 67.077 34.8262C66.9061 34.6549 66.8206 34.4468 66.8206 34.2019V33.4167H56.1795ZM56.1731 26.8142H66.827L65.7757 23.8334H57.2244L56.1731 26.8142ZM57.7199 31.2051C58.0231 31.2051 58.2802 31.099 58.4912 30.8867C58.7022 30.6745 58.8077 30.4167 58.8077 30.1135C58.8077 29.8103 58.7016 29.5532 58.4894 29.3422C58.2771 29.1312 58.0193 29.0257 57.7161 29.0257C57.4129 29.0257 57.1558 29.1318 56.9448 29.3441C56.7338 29.5563 56.6283 29.8141 56.6283 30.1173C56.6283 30.4205 56.7344 30.6776 56.9467 30.8886C57.1589 31.0996 57.4167 31.2051 57.7199 31.2051ZM65.284 31.2051C65.5872 31.2051 65.8443 31.099 66.0554 30.8867C66.2664 30.6745 66.3719 30.4167 66.3719 30.1135C66.3719 29.8103 66.2657 29.5532 66.0535 29.3422C65.8412 29.1312 65.5835 29.0257 65.2802 29.0257C64.977 29.0257 64.7199 29.1318 64.5089 29.3441C64.2979 29.5563 64.1924 29.8141 64.1924 30.1173C64.1924 30.4205 64.2985 30.6776 64.5108 30.8886C64.723 31.0996 64.9808 31.2051 65.284 31.2051Z" fill="white"/>
</g>
<path d="M79.8887 33.1367C77.8379 33.1367 76.3818 32.0361 76.3203 30.416H77.8516C77.9062 31.2842 78.7676 31.8379 79.875 31.8379C81.0713 31.8379 81.9395 31.1885 81.9395 30.2246C81.9395 29.2471 81.126 28.5498 79.7109 28.543H78.8633V27.3125H79.7109C80.8389 27.3193 81.625 26.6904 81.625 25.7402C81.625 24.8379 80.9482 24.2227 79.9023 24.2227C78.9111 24.2227 78.0225 24.7764 77.9883 25.6719H76.5391C76.5801 24.0586 78.0703 22.9648 79.916 22.9648C81.8643 22.9648 83.0879 24.1953 83.0742 25.6582C83.0879 26.7861 82.3906 27.5928 81.3242 27.8594V27.9277C82.6777 28.1191 83.4639 29.0283 83.457 30.2793C83.4639 31.9268 81.9395 33.1367 79.8887 33.1367ZM88.5911 23.1016V33H87.0735V24.6055H87.0188L84.6536 26.1504V24.7148L87.1145 23.1016H88.5911ZM101.6 28.3242V29.3633H96.733V31.6191H95.4478V29.3633H90.3892V28.3242H101.6ZM91.7837 33.9023V30.5527H93.0689V32.8496H100.356V33.9023H91.7837ZM91.8658 27.2441V22.2949H93.1509V23.7852H98.8248V22.2949H100.124V27.2441H91.8658ZM93.1509 26.2051H98.8248V24.7559H93.1509V26.2051Z" fill="white"/>
<rect x="171" y="12" width="48" height="32" rx="16" fill="white"/>
<mask id="mask1_42_14529" style="mask-type:alpha" maskUnits="userSpaceOnUse" x="185" y="18" width="20" height="20">
<rect x="185" y="18" width="20" height="20" fill="#D9D9D9"/>
</mask>
<g mask="url(#mask1_42_14529)">
<path d="M190.662 34.859C190.543 34.859 190.443 34.8184 190.362 34.7374C190.281 34.6563 190.24 34.5564 190.24 34.4375C190.24 34.3795 190.258 34.3128 190.294 34.2374C190.33 34.162 190.378 34.1069 190.438 34.0721L191.41 33.4167C190.666 33.4167 190.036 33.1594 189.522 32.645C189.007 32.1306 188.75 31.5011 188.75 30.7564V23C188.75 21.9808 189.245 21.2399 190.234 20.7773C191.223 20.3147 192.812 20.0834 195 20.0834C197.24 20.0834 198.841 20.3082 199.805 20.7579C200.768 21.2075 201.25 21.9549 201.25 23V30.7564C201.25 31.5011 200.993 32.1306 200.478 32.645C199.964 33.1594 199.334 33.4167 198.59 33.4167L199.562 34.0721C199.622 34.1063 199.67 34.1576 199.706 34.2259C199.742 34.2943 199.76 34.3648 199.76 34.4375C199.76 34.5564 199.719 34.6563 199.638 34.7374C199.557 34.8184 199.457 34.859 199.338 34.859H190.662ZM190 26.75H194.375V23.641H190V26.75ZM195.625 26.75H200V23.641H195.625V26.75ZM192.085 31.1731C192.388 31.1731 192.646 31.0669 192.857 30.8547C193.068 30.6424 193.173 30.3847 193.173 30.0815C193.173 29.7782 193.067 29.5211 192.855 29.3101C192.642 29.0991 192.385 28.9936 192.081 28.9936C191.778 28.9936 191.521 29.0998 191.31 29.312C191.099 29.5243 190.994 29.782 190.994 30.0852C190.994 30.3885 191.1 30.6456 191.312 30.8566C191.524 31.0676 191.782 31.1731 192.085 31.1731ZM197.919 31.1731C198.222 31.1731 198.479 31.0669 198.69 30.8547C198.901 30.6424 199.006 30.3847 199.006 30.0815C199.006 29.7782 198.9 29.5211 198.688 29.3101C198.476 29.0991 198.218 28.9936 197.915 28.9936C197.612 28.9936 197.354 29.0998 197.143 29.312C196.932 29.5243 196.827 29.782 196.827 30.0852C196.827 30.3885 196.933 30.6456 197.145 30.8566C197.358 31.0676 197.615 31.1731 197.919 31.1731Z" fill="#595959"/>
</g>
<rect x="289" y="12" width="48" height="32" rx="16" fill="white"/>
<mask id="mask2_42_14529" style="mask-type:alpha" maskUnits="userSpaceOnUse" x="303" y="18" width="20" height="20">
<rect x="303" y="18" width="20" height="20" fill="#D9D9D9"/>
</mask>
<g mask="url(#mask2_42_14529)">
<path d="M314.25 22.4551C313.824 22.4551 313.461 22.3053 313.161 22.0056C312.861 21.7059 312.711 21.3429 312.711 20.9166C312.711 20.4904 312.861 20.1274 313.161 19.8277C313.461 19.528 313.824 19.3782 314.25 19.3782C314.676 19.3782 315.039 19.528 315.339 19.8277C315.639 20.1274 315.788 20.4904 315.788 20.9166C315.788 21.3429 315.639 21.7059 315.339 22.0056C315.039 22.3053 314.676 22.4551 314.25 22.4551ZM309.921 36.9583C309.696 36.9583 309.516 36.88 309.381 36.7235C309.245 36.567 309.205 36.3803 309.258 36.1634L311.439 25.064L309.618 25.7996C309.57 25.821 309.532 25.8517 309.502 25.8918C309.473 25.9318 309.458 25.9786 309.458 26.032V28C309.458 28.1773 309.398 28.3258 309.279 28.4455C309.159 28.5651 309.011 28.6249 308.833 28.6249C308.656 28.6249 308.507 28.5651 308.388 28.4455C308.268 28.3258 308.208 28.1773 308.208 28V26.0448C308.208 25.7436 308.291 25.4674 308.455 25.2163C308.62 24.9653 308.846 24.7783 309.133 24.6554L312.216 23.3574C312.598 23.196 312.975 23.1653 313.349 23.2652C313.723 23.3651 314.02 23.5919 314.24 23.9455L315.066 25.2708C315.376 25.7729 315.791 26.2083 316.309 26.5769C316.827 26.9455 317.415 27.188 318.072 27.3045C318.227 27.3269 318.358 27.3993 318.465 27.5216C318.571 27.6439 318.625 27.7783 318.625 27.9247C318.625 28.1191 318.555 28.2804 318.416 28.4086C318.276 28.5368 318.118 28.5854 317.941 28.5544C317.221 28.4433 316.528 28.192 315.864 27.8004C315.2 27.4089 314.628 26.8691 314.146 26.181L313.526 29.3141L314.827 30.5609C314.977 30.7115 315.093 30.8782 315.172 31.0609C315.252 31.2436 315.292 31.4396 315.292 31.649V36.3333C315.292 36.5106 315.232 36.6591 315.112 36.7788C314.992 36.8985 314.844 36.9583 314.667 36.9583C314.489 36.9583 314.341 36.8985 314.221 36.7788C314.101 36.6591 314.042 36.5106 314.042 36.3333V32.0945L311.955 30.0993L310.513 36.4855C310.482 36.6148 310.412 36.7259 310.304 36.8189C310.195 36.9118 310.068 36.9583 309.921 36.9583Z" fill="#595959"/>
</g>
</svg>
