<svg width="390" height="48" viewBox="0 0 390 48" fill="none" xmlns="http://www.w3.org/2000/svg">
<rect x="20" y="12" width="24" height="24" rx="12" fill="#F5F5F5"/>
<path d="M28 29.6667C27.7222 29.6667 27.4862 29.5694 27.292 29.3747C27.0973 29.1805 27 28.9445 27 28.6667V22.6667C27 22.5112 27.036 22.3612 27.108 22.2167C27.1804 22.0723 27.2778 21.9556 27.4 21.8667L31.4 18.8501C31.4889 18.7834 31.5833 18.7361 31.6833 18.7081C31.7833 18.6805 31.8889 18.6667 32 18.6667C32.1111 18.6667 32.2167 18.6805 32.3167 18.7081C32.4167 18.7361 32.5111 18.7834 32.6 18.8501L36.6 21.8667C36.7222 21.9556 36.8193 22.0723 36.8913 22.2167C36.9638 22.3612 37 22.5112 37 22.6667V28.6667C37 28.9445 36.9027 29.1805 36.708 29.3747C36.5138 29.5694 36.2778 29.6667 36 29.6667H33.2667V25.2001H30.7333V29.6667H28Z" fill="#262626"/>
<path d="M54.8672 19.9629C54.874 21.5488 56.1865 22.957 57.998 23.5039L57.4512 24.3516C56.0293 23.9004 54.8877 22.9229 54.3408 21.665C53.8008 23.0117 52.6523 24.0645 51.2031 24.5566L50.6426 23.709C52.4746 23.1279 53.7803 21.6309 53.7871 19.9629V19.6484H50.9434V18.7734H57.6699V19.6484H54.8672V19.9629ZM52.6523 29.9434V25.1309H53.7188V26.6074H59.4609V25.1309H60.5273V29.9434H52.6523ZM53.7188 29.0684H59.4609V27.4688H53.7188V29.0684ZM59.4609 24.5293V17.9531H60.5273V24.5293H59.4609Z" fill="#262626"/>
<path fill-rule="evenodd" clip-rule="evenodd" d="M75 30V18H76V30H75Z" fill="#F0F0F0"/>
<rect x="88" y="12" width="24" height="24" rx="12" fill="#F5F5F5"/>
<path fill-rule="evenodd" clip-rule="evenodd" d="M105.333 17.5999H94.6666V30.3999H98.5586V26.8444H101.403V30.3999H105.333V17.5999ZM97.8475 20.4443H99.2697V21.8666H97.8475V20.4443ZM99.2697 23.2888H97.8475V24.711H99.2697V23.2888ZM102.114 23.2888H100.692V24.711H102.114V23.2888ZM102.114 20.4443H100.692V21.8666H102.114V20.4443Z" fill="#262626"/>
<path d="M128.459 17.9531V30.1074H127.393V17.9531H128.459ZM118.561 26.8672C119.6 26.8604 120.789 26.8535 122.02 26.8125V25.4863C120.557 25.3359 119.613 24.502 119.627 23.2852C119.613 21.9111 120.782 21.0225 122.539 21.0293C124.296 21.0225 125.485 21.9111 125.479 23.2852C125.485 24.4883 124.542 25.3223 123.1 25.4863V26.7715C124.275 26.7168 125.465 26.6348 126.586 26.4844L126.668 27.3047C123.954 27.7422 120.98 27.7832 118.725 27.7832L118.561 26.8672ZM118.82 20.332V19.457H122.02V17.9668H123.1V19.457H126.271V20.332H118.82ZM120.625 23.2852C120.618 24.126 121.411 24.6797 122.539 24.666C123.674 24.6797 124.46 24.126 124.453 23.2852C124.46 22.4375 123.674 21.8633 122.539 21.8633C121.411 21.8633 120.618 22.4375 120.625 23.2852ZM134.386 21.2207C134.386 23.3604 135.801 25.5684 137.531 26.416L136.874 27.2773C135.534 26.5801 134.413 25.1377 133.873 23.4492C133.333 25.2402 132.185 26.7783 130.818 27.5098L130.134 26.6484C131.911 25.7734 133.32 23.4424 133.333 21.2207V19.0059H134.386V21.2207ZM138.652 30.1074V17.9531H139.718V22.8887H141.755V23.8184H139.718V30.1074H138.652Z" fill="#262626"/>
<rect x="292" y="12" width="24" height="24" rx="12" fill="#FFF1F0"/>
<g clip-path="url(#clip0_107_1708)">
<path fill-rule="evenodd" clip-rule="evenodd" d="M303.995 20.6608C303 18.6601 300.44 17.7733 298.77 19.2003C297.1 20.6272 296.865 23.0129 298.176 24.7005C299.266 26.1037 302.566 29.063 303.648 30.0209C303.769 30.128 303.829 30.1816 303.9 30.2027C303.962 30.221 304.029 30.221 304.091 30.2027C304.161 30.1816 304.222 30.128 304.343 30.0209C305.424 29.063 308.724 26.1037 309.815 24.7005C311.126 23.0129 310.92 20.6122 309.221 19.2003C307.522 17.7883 305 18.6601 303.995 20.6608Z" fill="#FF4D4F"/>
</g>
<path d="M333.566 23.1348V24.0234H322.492V23.1348H333.566ZM323.094 21.6855C325.24 21.5146 327.284 20.5645 327.421 19.3066H323.504V18.4316H332.582V19.3066H328.651C328.761 20.5645 330.818 21.5146 332.979 21.6855L332.623 22.5332C330.634 22.3281 328.761 21.5557 328.029 20.332C327.305 21.5557 325.438 22.3281 323.449 22.5332L323.094 21.6855ZM323.832 25.9648V25.1445H332.145V27.8926H324.926V29.123H332.514V29.9707H323.859V27.0859H331.092V25.9648H323.832ZM340.478 19.2793C340.478 19.9697 340.416 20.6465 340.28 21.3027H343.308V17.9395H344.374V30.1074H343.308V25.4316H339.876V24.543H343.308V22.1777H340.061C339.364 24.4336 337.757 26.416 334.886 27.8105L334.325 26.9355C337.559 25.3701 339.172 23.0254 339.398 20.1543H334.859V19.2793H340.478ZM350.274 20.4961C350.281 21.9521 351.498 23.2852 353.295 23.8184L352.79 24.6387C351.388 24.2148 350.301 23.3125 349.761 22.1572C349.235 23.4287 348.107 24.4131 346.665 24.8848L346.131 24.0371C347.943 23.4902 349.214 22.0957 349.221 20.4961V20.2637H346.473V19.375H349.221V17.8984H350.301V19.375H353.022V20.2637H350.274V20.4961ZM347.362 29.2324C349.317 28.918 351.094 27.8516 351.272 26.5527H347.84V25.6777H355.852V26.5527H352.407C352.578 27.8242 354.369 28.918 356.317 29.2324L355.92 30.0664C354.143 29.7725 352.53 28.8906 351.833 27.6738C351.142 28.8838 349.536 29.752 347.772 30.0527L347.362 29.2324ZM354.567 25.0215V17.9531H355.633V20.9609H357.465V21.8633H355.633V25.0215H354.567ZM368 17.9531V30.1074H366.92V17.9531H368ZM358.101 26.9492C361.389 25.3906 363.071 23.0596 363.31 20.1543H358.662V19.2793H364.404C364.39 22.7725 362.764 25.8691 358.689 27.8242L358.101 26.9492Z" fill="#14161A"/>
<defs>
<clipPath id="clip0_107_1708">
<rect width="16" height="16" fill="white" transform="translate(296 16)"/>
</clipPath>
</defs>
</svg>
