<svg width="21" height="20" viewBox="0 0 21 20" fill="none" xmlns="http://www.w3.org/2000/svg">
<mask id="mask0_159_1679" style="mask-type:alpha" maskUnits="userSpaceOnUse" x="0" y="0" width="21" height="20">
<rect x="0.5" width="20" height="20" fill="#D9D9D9"/>
</mask>
<g mask="url(#mask0_159_1679)">
<path d="M11.7499 4.45509C11.3236 4.45509 10.9606 4.30525 10.661 4.00557C10.3613 3.70589 10.2114 3.34291 10.2114 2.91663C10.2114 2.49035 10.3613 2.12738 10.661 1.82769C10.9606 1.52801 11.3236 1.37817 11.7499 1.37817C12.1762 1.37817 12.5392 1.52801 12.8388 1.82769C13.1385 2.12738 13.2884 2.49035 13.2884 2.91663C13.2884 3.34291 13.1385 3.70589 12.8388 4.00557C12.5392 4.30525 12.1762 4.45509 11.7499 4.45509ZM7.42138 18.9583C7.19595 18.9583 7.01566 18.88 6.88052 18.7235C6.74537 18.567 6.7045 18.3803 6.75792 18.1634L8.93902 7.06405L7.11848 7.79963C7.0704 7.82099 7.03167 7.85171 7.00229 7.89178C6.9729 7.93185 6.95821 7.9786 6.95821 8.03203V9.99997C6.95821 10.1773 6.89838 10.3258 6.77873 10.4455C6.65908 10.5651 6.51058 10.6249 6.33323 10.6249C6.15588 10.6249 6.00738 10.5651 5.88773 10.4455C5.76808 10.3258 5.70825 10.1773 5.70825 9.99997V8.04484C5.70825 7.74356 5.79052 7.46739 5.95504 7.21632C6.11957 6.96525 6.34553 6.77829 6.63292 6.65542L9.71625 5.35736C10.0977 5.19603 10.4753 5.16531 10.8493 5.26519C11.2232 5.3651 11.5202 5.59186 11.7403 5.94549L12.5656 7.2708C12.8765 7.77294 13.291 8.20831 13.8092 8.5769C14.3274 8.94549 14.915 9.18801 15.572 9.30447C15.7269 9.3269 15.8578 9.39928 15.9646 9.52161C16.0715 9.64393 16.1249 9.77828 16.1249 9.92465C16.1249 10.1191 16.0552 10.2804 15.9158 10.4086C15.7763 10.5368 15.618 10.5854 15.4406 10.5544C14.7205 10.4433 14.0285 10.192 13.3645 9.80042C12.7005 9.40887 12.1276 8.86906 11.6457 8.18101L11.0255 11.3141L12.3268 12.5609C12.4775 12.7115 12.5926 12.8782 12.6722 13.0609C12.7518 13.2436 12.7915 13.4396 12.7915 13.649V18.3333C12.7915 18.5106 12.7317 18.6591 12.6121 18.7788C12.4924 18.8985 12.3439 18.9583 12.1666 18.9583C11.9892 18.9583 11.8407 18.8985 11.7211 18.7788C11.6014 18.6591 11.5416 18.5106 11.5416 18.3333V14.0945L9.45502 12.0993L8.01271 18.4855C7.98172 18.6148 7.91201 18.7259 7.80356 18.8189C7.69513 18.9118 7.56774 18.9583 7.42138 18.9583Z" fill="#595959"/>
</g>
</svg>
