<svg width="20" height="20" viewBox="0 0 20 20" fill="none" xmlns="http://www.w3.org/2000/svg">
<mask id="mask0_159_1668" style="mask-type:alpha" maskUnits="userSpaceOnUse" x="0" y="0" width="20" height="20">
<rect width="20" height="20" fill="#D9D9D9"/>
</mask>
<g mask="url(#mask0_159_1668)">
<path d="M4.67952 15.4165V16.2226C4.67952 16.463 4.59619 16.6665 4.42954 16.8332C4.26287 16.9999 4.0521 17.0832 3.79721 17.0832C3.55211 17.0832 3.3441 16.9975 3.17316 16.8261C3.00222 16.6548 2.91675 16.4466 2.91675 16.2018V10.064L4.61869 5.20825C4.68064 5.01702 4.79442 4.86504 4.96002 4.75234C5.12562 4.63961 5.30991 4.58325 5.51289 4.58325H14.5193C14.7143 4.58325 14.8914 4.64054 15.0504 4.75513C15.2095 4.86971 15.3199 5.02075 15.3814 5.20825L17.0834 10.064V16.2226C17.0834 16.463 17 16.6665 16.8334 16.8332C16.6667 16.9999 16.4559 17.0832 16.201 17.0832C15.9559 17.0832 15.7479 16.9975 15.577 16.8261C15.4061 16.6548 15.3206 16.4466 15.3206 16.2018V15.4165H4.67952ZM4.67312 8.81404H15.327L14.2757 5.83323H5.72442L4.67312 8.81404ZM6.21989 13.205C6.52312 13.205 6.78023 13.0989 6.99123 12.8866C7.20224 12.6744 7.30775 12.4166 7.30775 12.1134C7.30775 11.8102 7.20162 11.5531 6.98935 11.3421C6.77709 11.1311 6.51935 11.0255 6.21612 11.0255C5.9129 11.0255 5.65578 11.1317 5.44477 11.3439C5.23377 11.5562 5.12827 11.8139 5.12827 12.1172C5.12827 12.4204 5.2344 12.6775 5.44667 12.8885C5.65893 13.0995 5.91667 13.205 6.21989 13.205ZM13.784 13.205C14.0872 13.205 14.3443 13.0989 14.5554 12.8866C14.7664 12.6744 14.8719 12.4166 14.8719 12.1134C14.8719 11.8102 14.7657 11.5531 14.5535 11.3421C14.3412 11.1311 14.0835 11.0255 13.7802 11.0255C13.477 11.0255 13.2199 11.1317 13.0089 11.3439C12.7979 11.5562 12.6924 11.8139 12.6924 12.1172C12.6924 12.4204 12.7985 12.6775 13.0108 12.8885C13.223 13.0995 13.4808 13.205 13.784 13.205Z" fill="white"/>
</g>
</svg>
