<svg width="24" height="25" viewBox="0 0 24 25" fill="none" xmlns="http://www.w3.org/2000/svg">
<path d="M12 12.25C12.4833 12.25 12.896 12.0793 13.238 11.738C13.5793 11.396 13.75 10.9833 13.75 10.5C13.75 10.0167 13.5793 9.604 13.238 9.262C12.896 8.92067 12.4833 8.75 12 8.75C11.5167 8.75 11.104 8.92067 10.762 9.262C10.4207 9.604 10.25 10.0167 10.25 10.5C10.25 10.9833 10.4207 11.396 10.762 11.738C11.104 12.0793 11.5167 12.25 12 12.25ZM12 21.95C11.8833 21.95 11.7667 21.9333 11.65 21.9C11.5333 21.8667 11.425 21.8083 11.325 21.725C8.95833 19.575 7.18767 17.5833 6.013 15.75C4.83767 13.9167 4.25 12.2333 4.25 10.7C4.25 8.28333 5.02933 6.354 6.588 4.912C8.146 3.47067 9.95 2.75 12 2.75C14.05 2.75 15.8543 3.47067 17.413 4.912C18.971 6.354 19.75 8.28333 19.75 10.7C19.75 12.2333 19.1627 13.9167 17.988 15.75C16.8127 17.5833 15.0417 19.575 12.675 21.725C12.575 21.8083 12.4667 21.8667 12.35 21.9C12.2333 21.9333 12.1167 21.95 12 21.95Z" fill="#D9D9D9"/>
</svg>
