<svg width="22" height="22" viewBox="0 0 22 22" fill="none" xmlns="http://www.w3.org/2000/svg">
<g id="Icon/protect_check_solid">
<g id="verified_user">
<path d="M10.0375 11.9855L8.59375 10.5188C8.45625 10.3813 8.29217 10.3126 8.1015 10.3126C7.91022 10.3126 7.74583 10.3813 7.60833 10.5188C7.47083 10.6563 7.40208 10.8204 7.40208 11.0111C7.40208 11.2023 7.47083 11.3667 7.60833 11.5042L9.46458 13.3605C9.63264 13.5285 9.82361 13.6126 10.0375 13.6126C10.2514 13.6126 10.4424 13.5285 10.6104 13.3605L14.4146 9.55631C14.5521 9.41881 14.6208 9.2584 14.6208 9.07506C14.6208 8.89173 14.5521 8.72368 14.4146 8.5709C14.2771 8.4334 14.113 8.36465 13.9223 8.36465C13.7311 8.36465 13.5667 8.4334 13.4292 8.5709L10.0375 11.9855ZM11 19.6167H10.7818C10.7134 19.6167 10.6562 19.6015 10.6104 19.5709C8.73125 18.9598 7.18056 17.7758 5.95833 16.0188C4.73611 14.2619 4.125 12.314 4.125 10.1751V6.05006C4.125 5.69868 4.22431 5.38548 4.42292 5.11048C4.62153 4.83548 4.88125 4.62923 5.20208 4.49173L10.4271 2.54382C10.6257 2.4827 10.8167 2.45215 11 2.45215C11.1833 2.45215 11.3743 2.4827 11.5729 2.54382L16.7979 4.49173C17.1188 4.62923 17.3785 4.83548 17.5771 5.11048C17.7757 5.38548 17.875 5.69868 17.875 6.05006V10.1751C17.875 12.314 17.2639 14.2619 16.0417 16.0188C14.8194 17.7758 13.2688 18.9598 11.3896 19.5709C11.3285 19.6015 11.1986 19.6167 11 19.6167Z" fill="url(#paint0_linear_107_353)"/>
</g>
</g>
<defs>
<linearGradient id="paint0_linear_107_353" x1="11" y1="2.45215" x2="11" y2="19.6167" gradientUnits="userSpaceOnUse">
<stop stop-color="#BAE7FF"/>
<stop offset="1" stop-color="#40A9FF"/>
</linearGradient>
</defs>
</svg>
