<svg width="21" height="20" viewBox="0 0 21 20" fill="none" xmlns="http://www.w3.org/2000/svg">
<mask id="mask0_159_1674" style="mask-type:alpha" maskUnits="userSpaceOnUse" x="0" y="0" width="21" height="20">
<rect x="0.5" width="20" height="20" fill="#D9D9D9"/>
</mask>
<g mask="url(#mask0_159_1674)">
<path d="M6.16185 16.8588C6.04298 16.8588 5.94301 16.8183 5.86196 16.7373C5.7809 16.6562 5.74037 16.5562 5.74037 16.4374C5.74037 16.3794 5.7583 16.3127 5.79415 16.2373C5.82998 16.1619 5.87776 16.1068 5.9375 16.072L6.91025 15.4165C6.1656 15.4165 5.53606 15.1593 5.02165 14.6449C4.50722 14.1305 4.25 13.5009 4.25 12.7563V4.9999C4.25 3.98068 4.74466 3.23977 5.73398 2.77717C6.72328 2.31456 8.31195 2.08325 10.5 2.08325C12.7395 2.08325 14.3411 2.30808 15.3046 2.75773C16.2682 3.20738 16.75 3.95477 16.75 4.9999V12.7563C16.75 13.5009 16.4927 14.1305 15.9783 14.6449C15.4639 15.1593 14.8344 15.4165 14.0897 15.4165L15.0625 16.072C15.1222 16.1062 15.17 16.1574 15.2058 16.2258C15.2417 16.2942 15.2596 16.3647 15.2596 16.4374C15.2596 16.5562 15.2191 16.6562 15.138 16.7373C15.0569 16.8183 14.957 16.8588 14.8381 16.8588H6.16185ZM5.49998 8.74992H9.875V5.64092H5.49998V8.74992ZM11.125 8.74992H15.5V5.64092H11.125V8.74992ZM7.58521 13.173C7.88843 13.173 8.14554 13.0668 8.35654 12.8546C8.56754 12.6423 8.67304 12.3846 8.67304 12.0813C8.67304 11.7781 8.56691 11.521 8.35465 11.31C8.1424 11.099 7.88465 10.9935 7.58142 10.9935C7.27819 10.9935 7.02108 11.0996 6.81008 11.3119C6.59908 11.5241 6.49358 11.7819 6.49358 12.0851C6.49358 12.3883 6.59972 12.6455 6.81198 12.8565C7.02423 13.0675 7.28197 13.173 7.58521 13.173ZM13.4185 13.173C13.7218 13.173 13.9789 13.0668 14.1899 12.8546C14.4009 12.6423 14.5064 12.3846 14.5064 12.0813C14.5064 11.7781 14.4002 11.521 14.188 11.31C13.9757 11.099 13.718 10.9935 13.4148 10.9935C13.1115 10.9935 12.8544 11.0996 12.6434 11.3119C12.4324 11.5241 12.3269 11.7819 12.3269 12.0851C12.3269 12.3883 12.433 12.6455 12.6453 12.8565C12.8576 13.0675 13.1153 13.173 13.4185 13.173Z" fill="#595959"/>
</g>
</svg>
