<svg width="1440" height="55" viewBox="0 0 1440 55" fill="none" xmlns="http://www.w3.org/2000/svg">
<path d="M75.5156 6.03125V23H72.7969L64.7578 11.3984H64.6172V23H61.5703V6.03125H64.3359L72.3281 17.6328H72.4922V6.03125H75.5156ZM77.4497 19.4141C77.4497 16.5547 79.8286 15.7227 82.1841 15.5703C83.0747 15.5 84.8911 15.418 85.4536 15.3945L85.4419 14.375C85.4419 13.1094 84.6333 12.3828 83.145 12.3828C81.8091 12.3828 80.9888 12.9922 80.7544 13.9062H77.8716C78.0825 11.7383 80.0278 10.1094 83.2153 10.1094C85.6294 10.1094 88.4184 11.1055 88.4184 14.4922V23H85.5591V21.2422H85.4653C84.9028 22.3203 83.7192 23.2578 81.7153 23.2578C79.2895 23.2578 77.4497 21.9336 77.4497 19.4141ZM80.3325 19.3906C80.3325 20.4922 81.2348 21.0547 82.4888 21.0547C84.3052 21.0547 85.4653 19.8594 85.4653 18.4297L85.4536 17.3867C84.9145 17.4102 83.2505 17.5156 82.6528 17.5625C81.2348 17.6797 80.3325 18.2773 80.3325 19.3906ZM101.649 10.2734L97.1025 23H93.8213L89.2744 10.2734H92.4619L95.3916 19.7422H95.5322L98.4853 10.2734H101.649ZM103.044 23V10.2734H106.044V23H103.044ZM102.833 6.82812C102.833 5.9375 103.619 5.21094 104.568 5.21094C105.517 5.21094 106.302 5.9375 106.302 6.82812C106.302 7.73047 105.517 8.45703 104.568 8.46875C103.619 8.45703 102.833 7.73047 102.833 6.82812ZM113.978 28.0391C110.603 28.0391 108.459 26.5391 108.26 24.1484H111.236C111.447 25.2617 112.49 25.7773 114.025 25.7891C115.818 25.7773 116.978 25.0039 116.978 23.1406V20.7031H116.838C116.369 21.6406 115.35 22.8125 113.158 22.8125C110.217 22.8125 107.908 20.6797 107.908 16.5312C107.908 12.3477 110.228 10.1094 113.182 10.1094C115.42 10.1094 116.369 11.457 116.838 12.3594H116.978V10.2734H119.932V23.2109C119.932 26.4688 117.412 28.0391 113.978 28.0391ZM110.955 16.5781C110.955 18.9219 112.01 20.4688 113.978 20.4688C115.912 20.4688 117.002 19.0156 117.002 16.5781C117.002 14.1523 115.924 12.5586 113.978 12.5469C111.986 12.5586 110.955 14.2578 110.955 16.5781ZM121.725 19.4141C121.725 16.5547 124.104 15.7227 126.459 15.5703C127.35 15.5 129.166 15.418 129.729 15.3945L129.717 14.375C129.717 13.1094 128.909 12.3828 127.42 12.3828C126.084 12.3828 125.264 12.9922 125.03 13.9062H122.147C122.358 11.7383 124.303 10.1094 127.491 10.1094C129.905 10.1094 132.694 11.1055 132.694 14.4922V23H129.834V21.2422H129.741C129.178 22.3203 127.995 23.2578 125.991 23.2578C123.565 23.2578 121.725 21.9336 121.725 19.4141ZM124.608 19.3906C124.608 20.4922 125.51 21.0547 126.764 21.0547C128.58 21.0547 129.741 19.8594 129.741 18.4297L129.729 17.3867C129.19 17.4102 127.526 17.5156 126.928 17.5625C125.51 17.6797 124.608 18.2773 124.608 19.3906ZM141.378 10.2734V12.5703H138.87V19.1797C138.87 20.3984 139.479 20.6445 140.229 20.6562C140.581 20.668 141.167 20.6328 141.542 20.6094V23.0469C141.19 23.1055 140.616 23.1758 139.854 23.1641C137.604 23.1758 135.87 22.0625 135.893 19.6719V12.5703H134.065V10.2734H135.893V7.22656H138.87V10.2734H141.378ZM143.195 23V10.2734H146.195V23H143.195ZM142.984 6.82812C142.984 5.9375 143.769 5.21094 144.718 5.21094C145.667 5.21094 146.452 5.9375 146.452 6.82812C146.452 7.73047 145.667 8.45703 144.718 8.46875C143.769 8.45703 142.984 7.73047 142.984 6.82812ZM151.574 15.5469V23H148.574V10.2734H151.433V12.4297H151.598C152.172 11.0117 153.473 10.1094 155.371 10.1094C158.008 10.1094 159.742 11.8438 159.73 14.8906V23H156.754V15.3594C156.754 13.6484 155.828 12.6289 154.269 12.6406C152.687 12.6289 151.574 13.6953 151.574 15.5469ZM167.664 28.0391C164.289 28.0391 162.145 26.5391 161.946 24.1484H164.922C165.133 25.2617 166.176 25.7773 167.711 25.7891C169.504 25.7773 170.664 25.0039 170.664 23.1406V20.7031H170.524C170.055 21.6406 169.035 22.8125 166.844 22.8125C163.903 22.8125 161.594 20.6797 161.594 16.5312C161.594 12.3477 163.914 10.1094 166.868 10.1094C169.106 10.1094 170.055 11.457 170.524 12.3594H170.664V10.2734H173.618V23.2109C173.618 26.4688 171.098 28.0391 167.664 28.0391ZM164.641 16.5781C164.641 18.9219 165.696 20.4688 167.664 20.4688C169.598 20.4688 170.688 19.0156 170.688 16.5781C170.688 14.1523 169.61 12.5586 167.664 12.5469C165.672 12.5586 164.641 14.2578 164.641 16.5781ZM185.947 23.2344C182.958 23.2227 180.697 20.832 180.697 16.6484C180.697 12.4062 183.017 10.1094 185.97 10.1094C188.208 10.1094 189.146 11.457 189.603 12.3594H189.72V6.03125H192.697V23H189.767V20.9844H189.603C189.122 21.9219 188.15 23.2227 185.947 23.2344ZM183.743 16.625C183.743 19.0273 184.798 20.7734 186.767 20.7734C188.7 20.7734 189.79 19.1094 189.79 16.625C189.79 14.1523 188.712 12.5586 186.767 12.5469C184.775 12.5586 183.743 14.2578 183.743 16.625ZM194.654 19.4141C194.654 16.5547 197.033 15.7227 199.388 15.5703C200.279 15.5 202.095 15.418 202.658 15.3945L202.646 14.375C202.646 13.1094 201.838 12.3828 200.349 12.3828C199.013 12.3828 198.193 12.9922 197.959 13.9062H195.076C195.287 11.7383 197.232 10.1094 200.42 10.1094C202.834 10.1094 205.623 11.1055 205.623 14.4922V23H202.763V21.2422H202.67C202.107 22.3203 200.924 23.2578 198.92 23.2578C196.494 23.2578 194.654 21.9336 194.654 19.4141ZM197.537 19.3906C197.537 20.4922 198.439 21.0547 199.693 21.0547C201.51 21.0547 202.67 19.8594 202.67 18.4297L202.658 17.3867C202.119 17.4102 200.455 17.5156 199.857 17.5625C198.439 17.6797 197.537 18.2773 197.537 19.3906ZM210.955 15.5469V23H207.955V10.2734H210.815V12.4297H210.979C211.553 11.0117 212.854 10.1094 214.752 10.1094C217.389 10.1094 219.123 11.8438 219.112 14.8906V23H216.135V15.3594C216.135 13.6484 215.209 12.6289 213.651 12.6406C212.069 12.6289 210.955 13.6953 210.955 15.5469ZM227.046 28.0391C223.671 28.0391 221.526 26.5391 221.327 24.1484H224.303C224.514 25.2617 225.557 25.7773 227.092 25.7891C228.885 25.7773 230.046 25.0039 230.046 23.1406V20.7031H229.905C229.436 21.6406 228.417 22.8125 226.225 22.8125C223.284 22.8125 220.975 20.6797 220.975 16.5312C220.975 12.3477 223.296 10.1094 226.249 10.1094C228.487 10.1094 229.436 11.457 229.905 12.3594H230.046V10.2734H232.999V23.2109C232.999 26.4688 230.479 28.0391 227.046 28.0391ZM224.022 16.5781C224.022 18.9219 225.077 20.4688 227.046 20.4688C228.979 20.4688 230.069 19.0156 230.069 16.5781C230.069 14.1523 228.991 12.5586 227.046 12.5469C225.053 12.5586 224.022 14.2578 224.022 16.5781ZM241.027 23.2578C237.195 23.2578 234.839 20.7031 234.839 16.7188C234.839 12.7812 237.23 10.1094 240.863 10.1094C243.98 10.1094 246.675 12.0664 246.675 16.5312V17.4688H237.792C237.839 19.6367 239.116 20.9258 241.05 20.9141C242.363 20.9258 243.241 20.3633 243.628 19.6016H246.558C246.019 21.8047 243.98 23.2578 241.027 23.2578ZM237.804 15.4297H243.816C243.804 13.6953 242.632 12.4297 240.909 12.4297C239.116 12.4297 237.909 13.8125 237.804 15.4297ZM248.515 23V10.2734H251.422V12.3828H251.562C252.019 10.918 253.238 10.0859 254.703 10.0859C255.031 10.0859 255.5 10.1211 255.781 10.1562V12.9219C255.511 12.8281 254.89 12.7461 254.398 12.7344C252.734 12.7461 251.515 13.8945 251.515 15.5V23H248.515ZM262.215 23.2578C258.5 23.2578 256.121 20.6211 256.121 16.6953C256.121 12.7344 258.5 10.1094 262.215 10.1094C265.942 10.1094 268.32 12.7344 268.309 16.6953C268.32 20.6211 265.942 23.2578 262.215 23.2578ZM259.145 16.6719C259.145 19.0039 260.164 20.8672 262.238 20.8672C264.277 20.8672 265.297 19.0039 265.285 16.6719C265.297 14.3398 264.277 12.4648 262.238 12.4766C260.164 12.4648 259.145 14.3398 259.145 16.6719ZM278.282 17.6562V10.2734H281.258V23H278.376V20.75H278.235C277.649 22.168 276.313 23.1641 274.415 23.1641C271.895 23.1641 270.161 21.4297 270.149 18.3828V10.2734H273.149V17.9141C273.149 19.5312 274.11 20.5625 275.563 20.5625C276.876 20.5625 278.282 19.6016 278.282 17.6562ZM290.857 13.9062C290.669 12.9453 289.872 12.3242 288.607 12.3359C287.329 12.3242 286.392 12.9688 286.403 13.8359C286.392 14.4922 286.919 14.9844 288.208 15.2891L290.364 15.7344C292.767 16.2617 293.939 17.375 293.95 19.2031C293.939 21.5938 291.841 23.2578 288.513 23.2578C285.278 23.2578 283.368 21.8047 283.052 19.3672H286.099C286.275 20.457 287.118 20.9961 288.513 20.9844C289.954 20.9961 290.892 20.4102 290.903 19.4609C290.892 18.7227 290.318 18.2539 289.052 17.9844L287.013 17.5391C284.646 17.0586 283.415 15.8164 283.427 14C283.415 11.6445 285.454 10.1094 288.56 10.1094C291.595 10.1094 293.47 11.5977 293.693 13.9062H290.857ZM303.959 6.03125V23H300.959V6.03125H303.959ZM305.753 19.4141C305.753 16.5547 308.131 15.7227 310.487 15.5703C311.378 15.5 313.194 15.418 313.756 15.3945L313.745 14.375C313.745 13.1094 312.936 12.3828 311.448 12.3828C310.112 12.3828 309.292 12.9922 309.057 13.9062H306.174C306.385 11.7383 308.331 10.1094 311.518 10.1094C313.932 10.1094 316.721 11.1055 316.721 14.4922V23H313.862V21.2422H313.768C313.206 22.3203 312.022 23.2578 310.018 23.2578C307.592 23.2578 305.753 21.9336 305.753 19.4141ZM308.635 19.3906C308.635 20.4922 309.538 21.0547 310.792 21.0547C312.608 21.0547 313.768 19.8594 313.768 18.4297L313.756 17.3867C313.217 17.4102 311.553 17.5156 310.956 17.5625C309.538 17.6797 308.635 18.2773 308.635 19.3906ZM322.054 15.5469V23H319.054V10.2734H321.913V12.4297H322.077C322.651 11.0117 323.952 10.1094 325.851 10.1094C328.487 10.1094 330.222 11.8438 330.21 14.8906V23H327.233V15.3594C327.233 13.6484 326.308 12.6289 324.749 12.6406C323.167 12.6289 322.054 13.6953 322.054 15.5469ZM338.238 23.2578C334.406 23.2578 332.05 20.7031 332.05 16.7188C332.05 12.7812 334.441 10.1094 338.074 10.1094C341.191 10.1094 343.886 12.0664 343.886 16.5312V17.4688H335.003C335.05 19.6367 336.328 20.9258 338.261 20.9141C339.574 20.9258 340.453 20.3633 340.839 19.6016H343.769C343.23 21.8047 341.191 23.2578 338.238 23.2578ZM335.015 15.4297H341.027C341.015 13.6953 339.843 12.4297 338.121 12.4297C336.328 12.4297 335.121 13.8125 335.015 15.4297ZM352.945 13.9062C352.758 12.9453 351.961 12.3242 350.695 12.3359C349.418 12.3242 348.48 12.9688 348.492 13.8359C348.48 14.4922 349.008 14.9844 350.297 15.2891L352.453 15.7344C354.855 16.2617 356.027 17.375 356.039 19.2031C356.027 21.5938 353.93 23.2578 350.602 23.2578C347.367 23.2578 345.457 21.8047 345.141 19.3672H348.188C348.363 20.457 349.207 20.9961 350.602 20.9844C352.043 20.9961 352.98 20.4102 352.992 19.4609C352.98 18.7227 352.406 18.2539 351.141 17.9844L349.102 17.5391C346.734 17.0586 345.504 15.8164 345.516 14C345.504 11.6445 347.543 10.1094 350.648 10.1094C353.684 10.1094 355.559 11.5977 355.781 13.9062H352.945Z" fill="black"/>
<path d="M61.0938 49V39.1016H67.0547V40.1953H62.3242V43.5039H66.6035V44.584H62.3242V49H61.0938ZM68.4563 49V41.5762H69.6321V49H68.4563ZM68.2239 39.5664C68.2171 39.1289 68.593 38.7803 69.0442 38.7871C69.4954 38.7803 69.8714 39.1289 69.8782 39.5664C69.8714 39.9971 69.4954 40.3457 69.0442 40.3457C68.593 40.3457 68.2171 39.9971 68.2239 39.5664ZM72.4009 44.543V49H71.2252V41.5762H72.3599V42.7383H72.4556C72.8043 41.9795 73.5015 41.4805 74.6295 41.4805C76.1334 41.4805 77.1382 42.3965 77.1314 44.2832V49H75.9556V44.3652C75.9556 43.2168 75.3267 42.5332 74.274 42.5332C73.1939 42.5332 72.4009 43.2578 72.4009 44.543ZM81.5409 49.1504C79.6883 49.1572 78.3827 47.667 78.3827 45.3086C78.3827 42.957 79.6883 41.4805 81.5545 41.4805C82.9969 41.4805 83.4481 42.3555 83.701 42.752H83.783V39.1016H84.9725V49H83.8241V47.8652H83.701C83.4412 48.2754 82.9559 49.1572 81.5409 49.1504ZM79.5721 45.2812C79.5721 46.8604 80.2967 48.0977 81.7049 48.0977C83.0653 48.0977 83.8172 46.9492 83.8241 45.2812C83.8172 43.6338 83.0858 42.5332 81.7049 42.5332C80.2762 42.5332 79.5721 43.7295 79.5721 45.2812ZM90.1137 49V39.1016H91.2895V42.752H91.3852C91.6381 42.3555 92.0824 41.4805 93.5316 41.4805C95.391 41.4805 96.6967 42.957 96.7035 45.3086C96.6967 47.667 95.391 49.1572 93.5453 49.1504C92.1234 49.1572 91.6381 48.2754 91.3852 47.8652H91.2484V49H90.1137ZM91.2621 45.2812C91.2621 46.9492 92.0141 48.0977 93.3676 48.0977C94.7826 48.0977 95.5072 46.8604 95.5141 45.2812C95.5072 43.7295 94.8031 42.5332 93.3676 42.5332C92.0004 42.5332 91.2621 43.6338 91.2621 45.2812ZM97.5993 46.8945C97.5993 45.1924 99.1032 44.8027 100.388 44.707C100.867 44.6729 102.063 44.6045 102.398 44.5977V43.9961C102.398 43.0527 101.838 42.5059 100.716 42.5059C99.78 42.5059 99.2126 42.9365 99.0485 43.5039H97.818C97.9684 42.3076 99.1305 41.4805 100.771 41.4805C101.742 41.4805 103.567 41.7676 103.56 44.1055V49H102.398V47.9883H102.343C102.097 48.4873 101.421 49.1709 100.129 49.1777C98.7204 49.1709 97.5993 48.3438 97.5993 46.8945ZM98.7751 46.9492C98.7819 47.7354 99.4313 48.1318 100.334 48.125C101.66 48.1318 102.398 47.2432 102.398 46.3066V45.5615C102.049 45.582 100.881 45.6709 100.525 45.6914C99.4587 45.7598 98.7819 46.1357 98.7751 46.9492ZM107.97 49.1504C106.117 49.1572 104.811 47.667 104.811 45.3086C104.811 42.957 106.117 41.4805 107.983 41.4805C109.426 41.4805 109.877 42.3555 110.13 42.752H110.212V39.1016H111.401V49H110.253V47.8652H110.13C109.87 48.2754 109.385 49.1572 107.97 49.1504ZM106.001 45.2812C106.001 46.8604 106.726 48.0977 108.134 48.0977C109.494 48.0977 110.246 46.9492 110.253 45.2812C110.246 43.6338 109.515 42.5332 108.134 42.5332C106.705 42.5332 106.001 43.7295 106.001 45.2812ZM117.568 39.1016V49H116.392V39.1016H117.568ZM118.805 46.8945C118.805 45.1924 120.309 44.8027 121.595 44.707C122.073 44.6729 123.269 44.6045 123.604 44.5977V43.9961C123.604 43.0527 123.044 42.5059 121.923 42.5059C120.986 42.5059 120.419 42.9365 120.255 43.5039H119.024C119.175 42.3076 120.337 41.4805 121.977 41.4805C122.948 41.4805 124.773 41.7676 124.766 44.1055V49H123.604V47.9883H123.55C123.304 48.4873 122.627 49.1709 121.335 49.1777C119.927 49.1709 118.805 48.3438 118.805 46.8945ZM119.981 46.9492C119.988 47.7354 120.638 48.1318 121.54 48.125C122.866 48.1318 123.604 47.2432 123.604 46.3066V45.5615C123.256 45.582 122.087 45.6709 121.731 45.6914C120.665 45.7598 119.988 46.1357 119.981 46.9492ZM127.549 44.543V49H126.373V41.5762H127.508V42.7383H127.604C127.952 41.9795 128.649 41.4805 129.777 41.4805C131.281 41.4805 132.286 42.3965 132.279 44.2832V49H131.104V44.3652C131.104 43.2168 130.475 42.5332 129.422 42.5332C128.342 42.5332 127.549 43.2578 127.549 44.543ZM137.003 49.1504C134.857 49.1572 133.531 47.626 133.531 45.3496C133.531 43.0664 134.877 41.4805 136.894 41.4805C138.452 41.4805 140.1 42.4375 140.093 45.1855V45.6777H134.706C134.768 47.25 135.684 48.1113 137.003 48.1113C137.892 48.1113 138.452 47.7217 138.726 47.2637H139.984C139.635 48.3916 138.535 49.1572 137.003 49.1504ZM134.713 44.6797H138.904C138.897 43.4424 138.118 42.5195 136.894 42.5195C135.609 42.5195 134.795 43.5312 134.713 44.6797ZM145.473 43.5039C145.309 42.8887 144.838 42.4854 143.969 42.4785C143.053 42.4854 142.404 42.9775 142.397 43.5996C142.404 44.0918 142.8 44.4268 143.669 44.6387L144.776 44.9121C146.102 45.2266 146.752 45.8896 146.758 46.9219C146.752 48.207 145.706 49.1572 143.846 49.1504C142.178 49.1572 141.187 48.4121 140.989 47.0586H142.219C142.356 47.7832 142.882 48.1318 143.819 48.125C144.879 48.1318 145.542 47.6875 145.542 46.9902C145.542 46.4639 145.166 46.1221 144.325 45.9238L143.204 45.6641C141.912 45.3633 141.221 44.6592 141.221 43.668C141.221 42.3965 142.336 41.4805 143.969 41.4805C145.507 41.4805 146.471 42.3008 146.622 43.5039H145.473ZM152.911 49L150.655 41.5762H151.9L153.486 47.2363H153.554L155.126 41.5762H156.384L157.929 47.209H158.011L159.597 41.5762H160.827L158.571 49H157.409L155.796 43.3398H155.687L154.087 49H152.911ZM161.846 49V41.5762H163.022V49H161.846ZM161.614 39.5664C161.607 39.1289 161.983 38.7803 162.434 38.7871C162.885 38.7803 163.261 39.1289 163.268 39.5664C163.261 39.9971 162.885 40.3457 162.434 40.3457C161.983 40.3457 161.607 39.9971 161.614 39.5664ZM167.855 41.5762V42.5605H166.297V46.8672C166.29 47.8174 166.768 47.9746 167.267 47.9746C167.479 47.9746 167.794 47.9541 167.965 47.9473V49.041C167.78 49.0684 167.493 49.0957 167.144 49.0957C166.153 49.0957 165.114 48.4805 165.107 47.168V42.5605H163.986V41.5762H165.107V39.7988H166.297V41.5762H167.855ZM170.433 44.543V49H169.257V39.1016H170.433V42.7383H170.528C170.877 41.9727 171.54 41.4805 172.716 41.4805C174.233 41.4805 175.245 42.376 175.245 44.2832V49H174.069V44.3652C174.069 43.1963 173.427 42.5332 172.36 42.5332C171.253 42.5332 170.433 43.2578 170.433 44.543ZM181.261 39.1016V49H180.086V39.1016H181.261ZM185.89 49.1504C183.866 49.1572 182.499 47.626 182.499 45.3223C182.499 43.0049 183.866 41.4805 185.89 41.4805C187.906 41.4805 189.26 43.0049 189.253 45.3223C189.26 47.626 187.906 49.1572 185.89 49.1504ZM183.675 45.3223C183.682 46.8057 184.379 48.1113 185.89 48.1113C187.387 48.1113 188.077 46.8057 188.077 45.3223C188.077 43.8457 187.387 42.5195 185.89 42.5195C184.379 42.5195 183.682 43.8457 183.675 45.3223ZM191.94 49L189.684 41.5762H190.928L192.514 47.2363H192.582L194.154 41.5762H195.412L196.957 47.209H197.039L198.625 41.5762H199.856L197.6 49H196.438L194.824 43.3398H194.715L193.115 49H191.94ZM204.108 49V41.5762H205.243V42.7109H205.325C205.592 41.959 206.364 41.46 207.239 41.4531C207.417 41.46 207.717 41.4668 207.854 41.4805V42.6699C207.765 42.6494 207.451 42.5879 207.143 42.5879C206.077 42.5879 205.284 43.3262 205.284 44.3242V49H204.108ZM211.594 49.1504C209.447 49.1572 208.121 47.626 208.121 45.3496C208.121 43.0664 209.468 41.4805 211.484 41.4805C213.043 41.4805 214.69 42.4375 214.684 45.1855V45.6777H209.297C209.358 47.25 210.274 48.1113 211.594 48.1113C212.482 48.1113 213.043 47.7217 213.316 47.2637H214.574C214.226 48.3916 213.125 49.1572 211.594 49.1504ZM209.304 44.6797H213.494C213.487 43.4424 212.708 42.5195 211.484 42.5195C210.199 42.5195 209.386 43.5312 209.304 44.6797ZM219.257 41.5762V42.5605H217.616V49H216.427V42.5605H215.238V41.5762H216.427V40.5645C216.434 39.3613 217.234 38.6367 218.546 38.6367C218.833 38.6367 219.175 38.6709 219.421 38.7188V39.7715C219.168 39.7305 218.956 39.7168 218.806 39.7168C217.979 39.7168 217.61 40.0586 217.616 40.8242V41.5762H219.257ZM221.547 39.1016V49H220.372V39.1016H221.547ZM226.258 49.1504C224.111 49.1572 222.785 47.626 222.785 45.3496C222.785 43.0664 224.132 41.4805 226.148 41.4805C227.707 41.4805 229.354 42.4375 229.348 45.1855V45.6777H223.961C224.022 47.25 224.938 48.1113 226.258 48.1113C227.146 48.1113 227.707 47.7217 227.98 47.2637H229.238C228.889 48.3916 227.789 49.1572 226.258 49.1504ZM223.968 44.6797H228.158C228.151 43.4424 227.372 42.5195 226.148 42.5195C224.863 42.5195 224.05 43.5312 223.968 44.6797ZM233.634 49.1504C231.528 49.1572 230.243 47.5508 230.243 45.3223C230.243 43.0664 231.59 41.4805 233.607 41.4805C235.186 41.4805 236.375 42.417 236.56 43.8184H235.384C235.213 43.1416 234.625 42.5195 233.634 42.5195C232.308 42.5195 231.426 43.6133 231.419 45.2812C231.426 46.9971 232.287 48.0977 233.634 48.0977C234.509 48.0977 235.179 47.626 235.384 46.8125H236.56C236.375 48.1387 235.281 49.1572 233.634 49.1504ZM240.969 41.5762V42.5605H239.411V46.8672C239.404 47.8174 239.882 47.9746 240.381 47.9746C240.593 47.9746 240.908 47.9541 241.079 47.9473V49.041C240.894 49.0684 240.607 49.0957 240.258 49.0957C239.267 49.0957 238.228 48.4805 238.221 47.168V42.5605H237.1V41.5762H238.221V39.7988H239.411V41.5762H240.969ZM242.207 49V41.5762H243.383V49H242.207ZM241.974 39.5664C241.967 39.1289 242.343 38.7803 242.795 38.7871C243.246 38.7803 243.622 39.1289 243.629 39.5664C243.622 39.9971 243.246 40.3457 242.795 40.3457C242.343 40.3457 241.967 39.9971 241.974 39.5664ZM251.087 41.5762L248.339 49H247.122L244.388 41.5762H245.673L247.696 47.4688H247.778L249.802 41.5762H251.087ZM252.106 49V41.5762H253.281V49H252.106ZM251.873 39.5664C251.866 39.1289 252.242 38.7803 252.694 38.7871C253.145 38.7803 253.521 39.1289 253.528 39.5664C253.521 39.9971 253.145 40.3457 252.694 40.3457C252.242 40.3457 251.866 39.9971 251.873 39.5664ZM258.115 41.5762V42.5605H256.556V46.8672C256.549 47.8174 257.028 47.9746 257.527 47.9746C257.739 47.9746 258.053 47.9541 258.224 47.9473V49.041C258.04 49.0684 257.752 49.0957 257.404 49.0957C256.413 49.0957 255.374 48.4805 255.367 47.168V42.5605H254.246V41.5762H255.367V39.7988H256.556V41.5762H258.115ZM260.104 51.7891C259.851 51.7822 259.598 51.7754 259.448 51.7617V50.709C259.571 50.7227 259.838 50.7295 260.022 50.7363C260.501 50.7295 260.904 50.7021 261.294 49.6152L261.512 49.0547L258.764 41.5762H260.05L262.073 47.4688H262.155L264.179 41.5762H265.464L262.319 50.0664C261.882 51.2354 261.157 51.7822 260.104 51.7891ZM266.852 49.082C266.373 49.0752 265.963 48.6787 265.977 48.1934C265.963 47.7148 266.373 47.3184 266.852 47.3184C267.337 47.3184 267.733 47.7148 267.727 48.1934C267.733 48.6787 267.337 49.0752 266.852 49.082Z" fill="#595959"/>
<rect x="904.321" y="8" width="255" height="39" rx="5.5" fill="white"/>
<rect x="904.321" y="8" width="255" height="39" rx="5.5" stroke="#D9D9D9"/>
<path d="M923.204 29.625C923.204 29.3594 923.162 29.125 923.079 28.9219C923.001 28.7135 922.86 28.526 922.657 28.3594C922.459 28.1927 922.183 28.0339 921.829 27.8828C921.48 27.7318 921.037 27.5781 920.501 27.4219C919.938 27.2552 919.431 27.0703 918.978 26.8672C918.524 26.6589 918.136 26.4219 917.813 26.1562C917.491 25.8906 917.243 25.5859 917.071 25.2422C916.899 24.8984 916.813 24.5052 916.813 24.0625C916.813 23.6198 916.905 23.2109 917.087 22.8359C917.269 22.4609 917.53 22.1354 917.868 21.8594C918.212 21.5781 918.621 21.3594 919.095 21.2031C919.569 21.0469 920.097 20.9688 920.681 20.9688C921.535 20.9688 922.259 21.1328 922.853 21.4609C923.451 21.7839 923.907 22.2083 924.22 22.7344C924.532 23.2552 924.688 23.8125 924.688 24.4062H923.188C923.188 23.9792 923.097 23.6016 922.915 23.2734C922.733 22.9401 922.457 22.6797 922.087 22.4922C921.717 22.2995 921.248 22.2031 920.681 22.2031C920.144 22.2031 919.701 22.2839 919.353 22.4453C919.004 22.6068 918.743 22.8255 918.571 23.1016C918.405 23.3776 918.321 23.6927 918.321 24.0469C918.321 24.2865 918.371 24.5052 918.47 24.7031C918.574 24.8958 918.733 25.0755 918.946 25.2422C919.165 25.4089 919.441 25.5625 919.774 25.7031C920.113 25.8438 920.517 25.9792 920.985 26.1094C921.631 26.2917 922.188 26.4948 922.657 26.7188C923.126 26.9427 923.511 27.1953 923.813 27.4766C924.121 27.7526 924.347 28.0677 924.493 28.4219C924.644 28.7708 924.72 29.1667 924.72 29.6094C924.72 30.0729 924.626 30.4922 924.438 30.8672C924.251 31.2422 923.983 31.5625 923.634 31.8281C923.285 32.0938 922.866 32.2995 922.376 32.4453C921.892 32.5859 921.35 32.6562 920.751 32.6562C920.225 32.6562 919.707 32.5833 919.196 32.4375C918.691 32.2917 918.23 32.0729 917.813 31.7812C917.402 31.4896 917.071 31.1302 916.821 30.7031C916.576 30.2708 916.454 29.7708 916.454 29.2031H917.954C917.954 29.5938 918.03 29.9297 918.181 30.2109C918.332 30.487 918.537 30.7161 918.798 30.8984C919.063 31.0807 919.363 31.2161 919.696 31.3047C920.035 31.388 920.386 31.4297 920.751 31.4297C921.277 31.4297 921.722 31.3568 922.087 31.2109C922.451 31.0651 922.728 30.8568 922.915 30.5859C923.108 30.3151 923.204 29.9948 923.204 29.625ZM929.962 24.0469V25.1562H925.392V24.0469H929.962ZM926.938 21.9922H928.384V30.4062C928.384 30.6927 928.428 30.9089 928.517 31.0547C928.605 31.2005 928.72 31.2969 928.86 31.3438C929.001 31.3906 929.152 31.4141 929.313 31.4141C929.433 31.4141 929.558 31.4036 929.688 31.3828C929.824 31.3568 929.925 31.3359 929.993 31.3203L930.001 32.5C929.886 32.5365 929.735 32.5703 929.548 32.6016C929.366 32.638 929.144 32.6562 928.884 32.6562C928.53 32.6562 928.204 32.5859 927.907 32.4453C927.61 32.3047 927.373 32.0703 927.196 31.7422C927.024 31.4089 926.938 30.9609 926.938 30.3984V21.9922ZM936.642 31.0547V26.7031C936.642 26.3698 936.574 26.0807 936.438 25.8359C936.308 25.5859 936.11 25.3932 935.845 25.2578C935.579 25.1224 935.251 25.0547 934.86 25.0547C934.496 25.0547 934.175 25.1172 933.899 25.2422C933.629 25.3672 933.415 25.5312 933.259 25.7344C933.108 25.9375 933.032 26.1562 933.032 26.3906H931.587C931.587 26.0885 931.665 25.7891 931.821 25.4922C931.978 25.1953 932.201 24.9271 932.493 24.6875C932.79 24.4427 933.144 24.25 933.556 24.1094C933.972 23.9635 934.436 23.8906 934.946 23.8906C935.561 23.8906 936.103 23.9948 936.571 24.2031C937.045 24.4115 937.415 24.7266 937.681 25.1484C937.951 25.5651 938.087 26.0885 938.087 26.7188V30.6562C938.087 30.9375 938.11 31.237 938.157 31.5547C938.209 31.8724 938.285 32.1458 938.384 32.375V32.5H936.876C936.803 32.3333 936.746 32.112 936.704 31.8359C936.662 31.5547 936.642 31.2943 936.642 31.0547ZM936.892 27.375L936.907 28.3906H935.446C935.035 28.3906 934.668 28.4245 934.345 28.4922C934.022 28.5547 933.751 28.651 933.532 28.7812C933.313 28.9115 933.147 29.0755 933.032 29.2734C932.918 29.4661 932.86 29.6927 932.86 29.9531C932.86 30.2188 932.92 30.4609 933.04 30.6797C933.16 30.8984 933.34 31.0729 933.579 31.2031C933.824 31.3281 934.123 31.3906 934.478 31.3906C934.92 31.3906 935.311 31.2969 935.649 31.1094C935.988 30.9219 936.256 30.6927 936.454 30.4219C936.657 30.151 936.767 29.888 936.782 29.6328L937.399 30.3281C937.363 30.5469 937.264 30.7891 937.103 31.0547C936.941 31.3203 936.725 31.5755 936.454 31.8203C936.188 32.0599 935.871 32.2604 935.501 32.4219C935.136 32.5781 934.725 32.6562 934.267 32.6562C933.694 32.6562 933.191 32.5443 932.759 32.3203C932.332 32.0964 931.998 31.7969 931.759 31.4219C931.524 31.0417 931.407 30.6172 931.407 30.1484C931.407 29.6953 931.496 29.2969 931.673 28.9531C931.85 28.6042 932.105 28.3151 932.438 28.0859C932.772 27.8516 933.173 27.6745 933.642 27.5547C934.11 27.4349 934.634 27.375 935.212 27.375H936.892ZM941.806 25.375V32.5H940.36V24.0469H941.767L941.806 25.375ZM944.446 24L944.438 25.3438C944.319 25.3177 944.204 25.3021 944.095 25.2969C943.991 25.2865 943.871 25.2812 943.735 25.2812C943.402 25.2812 943.108 25.3333 942.853 25.4375C942.597 25.5417 942.381 25.6875 942.204 25.875C942.027 26.0625 941.886 26.2865 941.782 26.5469C941.683 26.8021 941.618 27.0833 941.587 27.3906L941.181 27.625C941.181 27.1146 941.23 26.6354 941.329 26.1875C941.433 25.7396 941.592 25.3438 941.806 25C942.019 24.651 942.29 24.3802 942.618 24.1875C942.951 23.9896 943.347 23.8906 943.806 23.8906C943.91 23.8906 944.03 23.9036 944.165 23.9297C944.3 23.9505 944.394 23.974 944.446 24ZM949.712 24.0469V25.1562H945.142V24.0469H949.712ZM946.688 21.9922H948.134V30.4062C948.134 30.6927 948.178 30.9089 948.267 31.0547C948.355 31.2005 948.47 31.2969 948.61 31.3438C948.751 31.3906 948.902 31.4141 949.063 31.4141C949.183 31.4141 949.308 31.4036 949.438 31.3828C949.574 31.3568 949.675 31.3359 949.743 31.3203L949.751 32.5C949.636 32.5365 949.485 32.5703 949.298 32.6016C949.116 32.638 948.894 32.6562 948.634 32.6562C948.28 32.6562 947.954 32.5859 947.657 32.4453C947.36 32.3047 947.123 32.0703 946.946 31.7422C946.774 31.4089 946.688 30.9609 946.688 30.3984V21.9922ZM960.704 30.8594V20.5H962.157V32.5H960.829L960.704 30.8594ZM955.017 28.3672V28.2031C955.017 27.5573 955.095 26.9714 955.251 26.4453C955.412 25.9141 955.639 25.4583 955.931 25.0781C956.228 24.6979 956.579 24.4062 956.985 24.2031C957.397 23.9948 957.855 23.8906 958.36 23.8906C958.892 23.8906 959.355 23.9844 959.751 24.1719C960.152 24.3542 960.491 24.6224 960.767 24.9766C961.048 25.3255 961.269 25.7474 961.431 26.2422C961.592 26.737 961.704 27.2969 961.767 27.9219V28.6406C961.709 29.2604 961.597 29.8177 961.431 30.3125C961.269 30.8073 961.048 31.2292 960.767 31.5781C960.491 31.9271 960.152 32.1953 959.751 32.3828C959.35 32.5651 958.881 32.6562 958.345 32.6562C957.85 32.6562 957.397 32.5495 956.985 32.3359C956.579 32.1224 956.228 31.8229 955.931 31.4375C955.639 31.0521 955.412 30.599 955.251 30.0781C955.095 29.5521 955.017 28.9818 955.017 28.3672ZM956.47 28.2031V28.3672C956.47 28.7891 956.511 29.1849 956.595 29.5547C956.683 29.9245 956.819 30.25 957.001 30.5312C957.183 30.8125 957.415 31.0339 957.696 31.1953C957.978 31.3516 958.313 31.4297 958.704 31.4297C959.183 31.4297 959.576 31.3281 959.884 31.125C960.196 30.9219 960.446 30.6536 960.634 30.3203C960.821 29.987 960.967 29.625 961.071 29.2344V27.3516C961.009 27.0651 960.918 26.7891 960.798 26.5234C960.683 26.2526 960.532 26.013 960.345 25.8047C960.162 25.5911 959.936 25.4219 959.665 25.2969C959.399 25.1719 959.084 25.1094 958.72 25.1094C958.324 25.1094 957.983 25.1927 957.696 25.3594C957.415 25.5208 957.183 25.7448 957.001 26.0312C956.819 26.3125 956.683 26.6406 956.595 27.0156C956.511 27.3854 956.47 27.7812 956.47 28.2031ZM969.392 31.0547V26.7031C969.392 26.3698 969.324 26.0807 969.188 25.8359C969.058 25.5859 968.86 25.3932 968.595 25.2578C968.329 25.1224 968.001 25.0547 967.61 25.0547C967.246 25.0547 966.925 25.1172 966.649 25.2422C966.379 25.3672 966.165 25.5312 966.009 25.7344C965.858 25.9375 965.782 26.1562 965.782 26.3906H964.337C964.337 26.0885 964.415 25.7891 964.571 25.4922C964.728 25.1953 964.951 24.9271 965.243 24.6875C965.54 24.4427 965.894 24.25 966.306 24.1094C966.722 23.9635 967.186 23.8906 967.696 23.8906C968.311 23.8906 968.853 23.9948 969.321 24.2031C969.795 24.4115 970.165 24.7266 970.431 25.1484C970.701 25.5651 970.837 26.0885 970.837 26.7188V30.6562C970.837 30.9375 970.86 31.237 970.907 31.5547C970.959 31.8724 971.035 32.1458 971.134 32.375V32.5H969.626C969.553 32.3333 969.496 32.112 969.454 31.8359C969.412 31.5547 969.392 31.2943 969.392 31.0547ZM969.642 27.375L969.657 28.3906H968.196C967.785 28.3906 967.418 28.4245 967.095 28.4922C966.772 28.5547 966.501 28.651 966.282 28.7812C966.063 28.9115 965.897 29.0755 965.782 29.2734C965.668 29.4661 965.61 29.6927 965.61 29.9531C965.61 30.2188 965.67 30.4609 965.79 30.6797C965.91 30.8984 966.09 31.0729 966.329 31.2031C966.574 31.3281 966.873 31.3906 967.228 31.3906C967.67 31.3906 968.061 31.2969 968.399 31.1094C968.738 30.9219 969.006 30.6927 969.204 30.4219C969.407 30.151 969.517 29.888 969.532 29.6328L970.149 30.3281C970.113 30.5469 970.014 30.7891 969.853 31.0547C969.691 31.3203 969.475 31.5755 969.204 31.8203C968.938 32.0599 968.621 32.2604 968.251 32.4219C967.886 32.5781 967.475 32.6562 967.017 32.6562C966.444 32.6562 965.941 32.5443 965.509 32.3203C965.082 32.0964 964.748 31.7969 964.509 31.4219C964.274 31.0417 964.157 30.6172 964.157 30.1484C964.157 29.6953 964.246 29.2969 964.423 28.9531C964.6 28.6042 964.855 28.3151 965.188 28.0859C965.522 27.8516 965.923 27.6745 966.392 27.5547C966.86 27.4349 967.384 27.375 967.962 27.375H969.642ZM976.649 24.0469V25.1562H972.079V24.0469H976.649ZM973.626 21.9922H975.071V30.4062C975.071 30.6927 975.116 30.9089 975.204 31.0547C975.293 31.2005 975.407 31.2969 975.548 31.3438C975.688 31.3906 975.84 31.4141 976.001 31.4141C976.121 31.4141 976.246 31.4036 976.376 31.3828C976.511 31.3568 976.613 31.3359 976.681 31.3203L976.688 32.5C976.574 32.5365 976.423 32.5703 976.235 32.6016C976.053 32.638 975.832 32.6562 975.571 32.6562C975.217 32.6562 974.892 32.5859 974.595 32.4453C974.298 32.3047 974.061 32.0703 973.884 31.7422C973.712 31.4089 973.626 30.9609 973.626 30.3984V21.9922ZM981.853 32.6562C981.264 32.6562 980.73 32.5573 980.251 32.3594C979.777 32.1562 979.368 31.8724 979.024 31.5078C978.686 31.1432 978.425 30.7109 978.243 30.2109C978.061 29.7109 977.97 29.1641 977.97 28.5703V28.2422C977.97 27.5547 978.071 26.9427 978.274 26.4062C978.478 25.8646 978.754 25.4062 979.103 25.0312C979.451 24.6562 979.847 24.3724 980.29 24.1797C980.733 23.987 981.191 23.8906 981.665 23.8906C982.269 23.8906 982.79 23.9948 983.228 24.2031C983.67 24.4115 984.032 24.7031 984.313 25.0781C984.595 25.4479 984.803 25.8854 984.938 26.3906C985.074 26.8906 985.142 27.4375 985.142 28.0312V28.6797H978.829V27.5H983.696V27.3906C983.675 27.0156 983.597 26.651 983.462 26.2969C983.332 25.9427 983.123 25.651 982.837 25.4219C982.55 25.1927 982.16 25.0781 981.665 25.0781C981.337 25.0781 981.035 25.1484 980.759 25.2891C980.483 25.4245 980.246 25.6276 980.048 25.8984C979.85 26.1693 979.696 26.5 979.587 26.8906C979.478 27.2812 979.423 27.7318 979.423 28.2422V28.5703C979.423 28.9714 979.478 29.349 979.587 29.7031C979.701 30.0521 979.866 30.3594 980.079 30.625C980.298 30.8906 980.561 31.099 980.868 31.25C981.181 31.401 981.535 31.4766 981.931 31.4766C982.441 31.4766 982.873 31.3724 983.228 31.1641C983.582 30.9557 983.892 30.6771 984.157 30.3281L985.032 31.0234C984.85 31.2995 984.618 31.5625 984.337 31.8125C984.056 32.0625 983.709 32.2656 983.298 32.4219C982.892 32.5781 982.41 32.6562 981.853 32.6562Z" fill="black" fill-opacity="0.25"/>
<g opacity="0.87">
<path d="M1028.46 28.8156L1025.9 25.5656C1025.85 25.5063 1025.79 25.4583 1025.73 25.4253C1025.66 25.3923 1025.58 25.3751 1025.51 25.375H1024.5C1024.39 25.375 1024.33 25.4953 1024.4 25.5781L1026.65 28.4375H1017.2C1017.13 28.4375 1017.07 28.4938 1017.07 28.5625V29.5C1017.07 29.5687 1017.13 29.625 1017.2 29.625H1028.07C1028.49 29.625 1028.72 29.1438 1028.46 28.8156Z" fill="black" fill-opacity="0.25"/>
</g>
<path d="M1047.37 31.2734V32.5H1041.34V31.2734H1047.37ZM1041.65 21.125V32.5H1040.14V21.125H1041.65ZM1046.57 26.0156V27.2422H1041.34V26.0156H1046.57ZM1047.29 21.125V22.3594H1041.34V21.125H1047.29ZM1050.46 25.8516V32.5H1049.02V24.0469H1050.38L1050.46 25.8516ZM1050.12 27.9531L1049.52 27.9297C1049.52 27.3516 1049.61 26.8177 1049.77 26.3281C1049.94 25.8333 1050.18 25.4036 1050.48 25.0391C1050.78 24.6745 1051.14 24.3932 1051.56 24.1953C1051.98 23.9922 1052.44 23.8906 1052.95 23.8906C1053.37 23.8906 1053.75 23.9479 1054.08 24.0625C1054.41 24.1719 1054.7 24.349 1054.93 24.5938C1055.17 24.8385 1055.35 25.1562 1055.48 25.5469C1055.6 25.9323 1055.67 26.4036 1055.67 26.9609V32.5H1054.21V26.9453C1054.21 26.5026 1054.15 26.1484 1054.02 25.8828C1053.89 25.612 1053.7 25.4167 1053.45 25.2969C1053.2 25.1719 1052.89 25.1094 1052.52 25.1094C1052.17 25.1094 1051.84 25.1849 1051.54 25.3359C1051.25 25.487 1051 25.6953 1050.78 25.9609C1050.57 26.2266 1050.41 26.5312 1050.29 26.875C1050.18 27.2135 1050.12 27.5729 1050.12 27.9531ZM1063.19 30.8594V20.5H1064.64V32.5H1063.31L1063.19 30.8594ZM1057.5 28.3672V28.2031C1057.5 27.5573 1057.58 26.9714 1057.74 26.4453C1057.9 25.9141 1058.12 25.4583 1058.42 25.0781C1058.71 24.6979 1059.06 24.4062 1059.47 24.2031C1059.88 23.9948 1060.34 23.8906 1060.84 23.8906C1061.38 23.8906 1061.84 23.9844 1062.24 24.1719C1062.64 24.3542 1062.97 24.6224 1063.25 24.9766C1063.53 25.3255 1063.75 25.7474 1063.92 26.2422C1064.08 26.737 1064.19 27.2969 1064.25 27.9219V28.6406C1064.19 29.2604 1064.08 29.8177 1063.92 30.3125C1063.75 30.8073 1063.53 31.2292 1063.25 31.5781C1062.97 31.9271 1062.64 32.1953 1062.24 32.3828C1061.83 32.5651 1061.37 32.6562 1060.83 32.6562C1060.33 32.6562 1059.88 32.5495 1059.47 32.3359C1059.06 32.1224 1058.71 31.8229 1058.42 31.4375C1058.12 31.0521 1057.9 30.599 1057.74 30.0781C1057.58 29.5521 1057.5 28.9818 1057.5 28.3672ZM1058.95 28.2031V28.3672C1058.95 28.7891 1059 29.1849 1059.08 29.5547C1059.17 29.9245 1059.3 30.25 1059.49 30.5312C1059.67 30.8125 1059.9 31.0339 1060.18 31.1953C1060.46 31.3516 1060.8 31.4297 1061.19 31.4297C1061.67 31.4297 1062.06 31.3281 1062.37 31.125C1062.68 30.9219 1062.93 30.6536 1063.12 30.3203C1063.31 29.987 1063.45 29.625 1063.56 29.2344V27.3516C1063.49 27.0651 1063.4 26.7891 1063.28 26.5234C1063.17 26.2526 1063.02 26.013 1062.83 25.8047C1062.65 25.5911 1062.42 25.4219 1062.15 25.2969C1061.88 25.1719 1061.57 25.1094 1061.2 25.1094C1060.81 25.1094 1060.47 25.1927 1060.18 25.3594C1059.9 25.5208 1059.67 25.7448 1059.49 26.0312C1059.3 26.3125 1059.17 26.6406 1059.08 27.0156C1059 27.3854 1058.95 27.7812 1058.95 28.2031ZM1076.19 30.8594V20.5H1077.64V32.5H1076.31L1076.19 30.8594ZM1070.5 28.3672V28.2031C1070.5 27.5573 1070.58 26.9714 1070.74 26.4453C1070.9 25.9141 1071.12 25.4583 1071.42 25.0781C1071.71 24.6979 1072.06 24.4062 1072.47 24.2031C1072.88 23.9948 1073.34 23.8906 1073.84 23.8906C1074.38 23.8906 1074.84 23.9844 1075.24 24.1719C1075.64 24.3542 1075.97 24.6224 1076.25 24.9766C1076.53 25.3255 1076.75 25.7474 1076.92 26.2422C1077.08 26.737 1077.19 27.2969 1077.25 27.9219V28.6406C1077.19 29.2604 1077.08 29.8177 1076.92 30.3125C1076.75 30.8073 1076.53 31.2292 1076.25 31.5781C1075.97 31.9271 1075.64 32.1953 1075.24 32.3828C1074.83 32.5651 1074.37 32.6562 1073.83 32.6562C1073.33 32.6562 1072.88 32.5495 1072.47 32.3359C1072.06 32.1224 1071.71 31.8229 1071.42 31.4375C1071.12 31.0521 1070.9 30.599 1070.74 30.0781C1070.58 29.5521 1070.5 28.9818 1070.5 28.3672ZM1071.95 28.2031V28.3672C1071.95 28.7891 1072 29.1849 1072.08 29.5547C1072.17 29.9245 1072.3 30.25 1072.49 30.5312C1072.67 30.8125 1072.9 31.0339 1073.18 31.1953C1073.46 31.3516 1073.8 31.4297 1074.19 31.4297C1074.67 31.4297 1075.06 31.3281 1075.37 31.125C1075.68 30.9219 1075.93 30.6536 1076.12 30.3203C1076.31 29.987 1076.45 29.625 1076.56 29.2344V27.3516C1076.49 27.0651 1076.4 26.7891 1076.28 26.5234C1076.17 26.2526 1076.02 26.013 1075.83 25.8047C1075.65 25.5911 1075.42 25.4219 1075.15 25.2969C1074.88 25.1719 1074.57 25.1094 1074.2 25.1094C1073.81 25.1094 1073.47 25.1927 1073.18 25.3594C1072.9 25.5208 1072.67 25.7448 1072.49 26.0312C1072.3 26.3125 1072.17 26.6406 1072.08 27.0156C1072 27.3854 1071.95 27.7812 1071.95 28.2031ZM1084.88 31.0547V26.7031C1084.88 26.3698 1084.81 26.0807 1084.67 25.8359C1084.54 25.5859 1084.34 25.3932 1084.08 25.2578C1083.81 25.1224 1083.49 25.0547 1083.09 25.0547C1082.73 25.0547 1082.41 25.1172 1082.13 25.2422C1081.86 25.3672 1081.65 25.5312 1081.49 25.7344C1081.34 25.9375 1081.27 26.1562 1081.27 26.3906H1079.82C1079.82 26.0885 1079.9 25.7891 1080.06 25.4922C1080.21 25.1953 1080.44 24.9271 1080.73 24.6875C1081.02 24.4427 1081.38 24.25 1081.79 24.1094C1082.21 23.9635 1082.67 23.8906 1083.18 23.8906C1083.8 23.8906 1084.34 23.9948 1084.81 24.2031C1085.28 24.4115 1085.65 24.7266 1085.92 25.1484C1086.19 25.5651 1086.32 26.0885 1086.32 26.7188V30.6562C1086.32 30.9375 1086.34 31.237 1086.39 31.5547C1086.44 31.8724 1086.52 32.1458 1086.62 32.375V32.5H1085.11C1085.04 32.3333 1084.98 32.112 1084.94 31.8359C1084.9 31.5547 1084.88 31.2943 1084.88 31.0547ZM1085.13 27.375L1085.14 28.3906H1083.68C1083.27 28.3906 1082.9 28.4245 1082.58 28.4922C1082.26 28.5547 1081.99 28.651 1081.77 28.7812C1081.55 28.9115 1081.38 29.0755 1081.27 29.2734C1081.15 29.4661 1081.09 29.6927 1081.09 29.9531C1081.09 30.2188 1081.15 30.4609 1081.27 30.6797C1081.39 30.8984 1081.57 31.0729 1081.81 31.2031C1082.06 31.3281 1082.36 31.3906 1082.71 31.3906C1083.15 31.3906 1083.55 31.2969 1083.88 31.1094C1084.22 30.9219 1084.49 30.6927 1084.69 30.4219C1084.89 30.151 1085 29.888 1085.02 29.6328L1085.63 30.3281C1085.6 30.5469 1085.5 30.7891 1085.34 31.0547C1085.18 31.3203 1084.96 31.5755 1084.69 31.8203C1084.42 32.0599 1084.11 32.2604 1083.74 32.4219C1083.37 32.5781 1082.96 32.6562 1082.5 32.6562C1081.93 32.6562 1081.43 32.5443 1080.99 32.3203C1080.57 32.0964 1080.23 31.7969 1079.99 31.4219C1079.76 31.0417 1079.64 30.6172 1079.64 30.1484C1079.64 29.6953 1079.73 29.2969 1079.91 28.9531C1080.08 28.6042 1080.34 28.3151 1080.67 28.0859C1081.01 27.8516 1081.41 27.6745 1081.88 27.5547C1082.34 27.4349 1082.87 27.375 1083.45 27.375H1085.13ZM1092.13 24.0469V25.1562H1087.56V24.0469H1092.13ZM1089.11 21.9922H1090.56V30.4062C1090.56 30.6927 1090.6 30.9089 1090.69 31.0547C1090.78 31.2005 1090.89 31.2969 1091.03 31.3438C1091.17 31.3906 1091.32 31.4141 1091.49 31.4141C1091.61 31.4141 1091.73 31.4036 1091.86 31.3828C1092 31.3568 1092.1 31.3359 1092.17 31.3203L1092.17 32.5C1092.06 32.5365 1091.91 32.5703 1091.72 32.6016C1091.54 32.638 1091.32 32.6562 1091.06 32.6562C1090.7 32.6562 1090.38 32.5859 1090.08 32.4453C1089.78 32.3047 1089.55 32.0703 1089.37 31.7422C1089.2 31.4089 1089.11 30.9609 1089.11 30.3984V21.9922ZM1097.34 32.6562C1096.75 32.6562 1096.21 32.5573 1095.74 32.3594C1095.26 32.1562 1094.85 31.8724 1094.51 31.5078C1094.17 31.1432 1093.91 30.7109 1093.73 30.2109C1093.55 29.7109 1093.45 29.1641 1093.45 28.5703V28.2422C1093.45 27.5547 1093.56 26.9427 1093.76 26.4062C1093.96 25.8646 1094.24 25.4062 1094.59 25.0312C1094.94 24.6562 1095.33 24.3724 1095.77 24.1797C1096.22 23.987 1096.68 23.8906 1097.15 23.8906C1097.75 23.8906 1098.27 23.9948 1098.71 24.2031C1099.15 24.4115 1099.52 24.7031 1099.8 25.0781C1100.08 25.4479 1100.29 25.8854 1100.42 26.3906C1100.56 26.8906 1100.63 27.4375 1100.63 28.0312V28.6797H1094.31V27.5H1099.18V27.3906C1099.16 27.0156 1099.08 26.651 1098.95 26.2969C1098.82 25.9427 1098.61 25.651 1098.32 25.4219C1098.03 25.1927 1097.64 25.0781 1097.15 25.0781C1096.82 25.0781 1096.52 25.1484 1096.24 25.2891C1095.97 25.4245 1095.73 25.6276 1095.53 25.8984C1095.33 26.1693 1095.18 26.5 1095.07 26.8906C1094.96 27.2812 1094.91 27.7318 1094.91 28.2422V28.5703C1094.91 28.9714 1094.96 29.349 1095.07 29.7031C1095.19 30.0521 1095.35 30.3594 1095.56 30.625C1095.78 30.8906 1096.05 31.099 1096.35 31.25C1096.67 31.401 1097.02 31.4766 1097.42 31.4766C1097.93 31.4766 1098.36 31.3724 1098.71 31.1641C1099.07 30.9557 1099.38 30.6771 1099.64 30.3281L1100.52 31.0234C1100.33 31.2995 1100.1 31.5625 1099.82 31.8125C1099.54 32.0625 1099.19 32.2656 1098.78 32.4219C1098.38 32.5781 1097.89 32.6562 1097.34 32.6562Z" fill="black" fill-opacity="0.25"/>
<g clip-path="url(#clip0_174_1180)">
<path d="M1146.57 22.377H1143.95V21.377C1143.95 21.3082 1143.89 21.252 1143.82 21.252H1142.95C1142.88 21.252 1142.82 21.3082 1142.82 21.377V22.377H1138.82V21.377C1138.82 21.3082 1138.77 21.252 1138.7 21.252H1137.82C1137.75 21.252 1137.7 21.3082 1137.7 21.377V22.377H1135.07C1134.79 22.377 1134.57 22.6004 1134.57 22.877V33.252C1134.57 33.5285 1134.79 33.752 1135.07 33.752H1146.57C1146.85 33.752 1147.07 33.5285 1147.07 33.252V22.877C1147.07 22.6004 1146.85 22.377 1146.57 22.377ZM1145.95 32.627H1135.7V26.6895H1145.95V32.627ZM1135.7 25.627V23.502H1137.7V24.252C1137.7 24.3207 1137.75 24.377 1137.82 24.377H1138.7C1138.77 24.377 1138.82 24.3207 1138.82 24.252V23.502H1142.82V24.252C1142.82 24.3207 1142.88 24.377 1142.95 24.377H1143.82C1143.89 24.377 1143.95 24.3207 1143.95 24.252V23.502H1145.95V25.627H1135.7Z" fill="black" fill-opacity="0.25"/>
</g>
<rect x="1172.32" y="8" width="207.178" height="39" rx="5.5" fill="white"/>
<rect x="1172.32" y="8" width="207.178" height="39" rx="5.5" stroke="#D9D9D9"/>
<path d="M1191.2 29.625C1191.2 29.3594 1191.16 29.125 1191.08 28.9219C1191 28.7135 1190.86 28.526 1190.66 28.3594C1190.46 28.1927 1190.18 28.0339 1189.83 27.8828C1189.48 27.7318 1189.04 27.5781 1188.5 27.4219C1187.94 27.2552 1187.43 27.0703 1186.98 26.8672C1186.52 26.6589 1186.14 26.4219 1185.81 26.1562C1185.49 25.8906 1185.24 25.5859 1185.07 25.2422C1184.9 24.8984 1184.81 24.5052 1184.81 24.0625C1184.81 23.6198 1184.9 23.2109 1185.09 22.8359C1185.27 22.4609 1185.53 22.1354 1185.87 21.8594C1186.21 21.5781 1186.62 21.3594 1187.09 21.2031C1187.57 21.0469 1188.1 20.9688 1188.68 20.9688C1189.53 20.9688 1190.26 21.1328 1190.85 21.4609C1191.45 21.7839 1191.91 22.2083 1192.22 22.7344C1192.53 23.2552 1192.69 23.8125 1192.69 24.4062H1191.19C1191.19 23.9792 1191.1 23.6016 1190.92 23.2734C1190.73 22.9401 1190.46 22.6797 1190.09 22.4922C1189.72 22.2995 1189.25 22.2031 1188.68 22.2031C1188.14 22.2031 1187.7 22.2839 1187.35 22.4453C1187 22.6068 1186.74 22.8255 1186.57 23.1016C1186.4 23.3776 1186.32 23.6927 1186.32 24.0469C1186.32 24.2865 1186.37 24.5052 1186.47 24.7031C1186.57 24.8958 1186.73 25.0755 1186.95 25.2422C1187.17 25.4089 1187.44 25.5625 1187.77 25.7031C1188.11 25.8438 1188.52 25.9792 1188.99 26.1094C1189.63 26.2917 1190.19 26.4948 1190.66 26.7188C1191.13 26.9427 1191.51 27.1953 1191.81 27.4766C1192.12 27.7526 1192.35 28.0677 1192.49 28.4219C1192.64 28.7708 1192.72 29.1667 1192.72 29.6094C1192.72 30.0729 1192.63 30.4922 1192.44 30.8672C1192.25 31.2422 1191.98 31.5625 1191.63 31.8281C1191.28 32.0938 1190.87 32.2995 1190.38 32.4453C1189.89 32.5859 1189.35 32.6562 1188.75 32.6562C1188.22 32.6562 1187.71 32.5833 1187.2 32.4375C1186.69 32.2917 1186.23 32.0729 1185.81 31.7812C1185.4 31.4896 1185.07 31.1302 1184.82 30.7031C1184.58 30.2708 1184.45 29.7708 1184.45 29.2031H1185.95C1185.95 29.5938 1186.03 29.9297 1186.18 30.2109C1186.33 30.487 1186.54 30.7161 1186.8 30.8984C1187.06 31.0807 1187.36 31.2161 1187.7 31.3047C1188.03 31.388 1188.39 31.4297 1188.75 31.4297C1189.28 31.4297 1189.72 31.3568 1190.09 31.2109C1190.45 31.0651 1190.73 30.8568 1190.92 30.5859C1191.11 30.3151 1191.2 29.9948 1191.2 29.625ZM1197.93 32.6562C1197.34 32.6562 1196.81 32.5573 1196.33 32.3594C1195.86 32.1562 1195.45 31.8724 1195.1 31.5078C1194.76 31.1432 1194.5 30.7109 1194.32 30.2109C1194.14 29.7109 1194.05 29.1641 1194.05 28.5703V28.2422C1194.05 27.5547 1194.15 26.9427 1194.35 26.4062C1194.56 25.8646 1194.83 25.4062 1195.18 25.0312C1195.53 24.6562 1195.93 24.3724 1196.37 24.1797C1196.81 23.987 1197.27 23.8906 1197.74 23.8906C1198.35 23.8906 1198.87 23.9948 1199.31 24.2031C1199.75 24.4115 1200.11 24.7031 1200.39 25.0781C1200.67 25.4479 1200.88 25.8854 1201.02 26.3906C1201.15 26.8906 1201.22 27.4375 1201.22 28.0312V28.6797H1194.91V27.5H1199.77V27.3906C1199.75 27.0156 1199.68 26.651 1199.54 26.2969C1199.41 25.9427 1199.2 25.651 1198.92 25.4219C1198.63 25.1927 1198.24 25.0781 1197.74 25.0781C1197.42 25.0781 1197.11 25.1484 1196.84 25.2891C1196.56 25.4245 1196.32 25.6276 1196.13 25.8984C1195.93 26.1693 1195.77 26.5 1195.67 26.8906C1195.56 27.2812 1195.5 27.7318 1195.5 28.2422V28.5703C1195.5 28.9714 1195.56 29.349 1195.67 29.7031C1195.78 30.0521 1195.94 30.3594 1196.16 30.625C1196.38 30.8906 1196.64 31.099 1196.95 31.25C1197.26 31.401 1197.61 31.4766 1198.01 31.4766C1198.52 31.4766 1198.95 31.3724 1199.31 31.1641C1199.66 30.9557 1199.97 30.6771 1200.24 30.3281L1201.11 31.0234C1200.93 31.2995 1200.7 31.5625 1200.42 31.8125C1200.13 32.0625 1199.79 32.2656 1199.38 32.4219C1198.97 32.5781 1198.49 32.6562 1197.93 32.6562ZM1204.48 20.5V32.5H1203.02V20.5H1204.48ZM1210.31 32.6562C1209.72 32.6562 1209.18 32.5573 1208.7 32.3594C1208.23 32.1562 1207.82 31.8724 1207.48 31.5078C1207.14 31.1432 1206.88 30.7109 1206.7 30.2109C1206.51 29.7109 1206.42 29.1641 1206.42 28.5703V28.2422C1206.42 27.5547 1206.52 26.9427 1206.73 26.4062C1206.93 25.8646 1207.21 25.4062 1207.56 25.0312C1207.9 24.6562 1208.3 24.3724 1208.74 24.1797C1209.19 23.987 1209.64 23.8906 1210.12 23.8906C1210.72 23.8906 1211.24 23.9948 1211.68 24.2031C1212.12 24.4115 1212.49 24.7031 1212.77 25.0781C1213.05 25.4479 1213.26 25.8854 1213.39 26.3906C1213.53 26.8906 1213.59 27.4375 1213.59 28.0312V28.6797H1207.28V27.5H1212.15V27.3906C1212.13 27.0156 1212.05 26.651 1211.92 26.2969C1211.78 25.9427 1211.58 25.651 1211.29 25.4219C1211 25.1927 1210.61 25.0781 1210.12 25.0781C1209.79 25.0781 1209.49 25.1484 1209.21 25.2891C1208.94 25.4245 1208.7 25.6276 1208.5 25.8984C1208.3 26.1693 1208.15 26.5 1208.04 26.8906C1207.93 27.2812 1207.88 27.7318 1207.88 28.2422V28.5703C1207.88 28.9714 1207.93 29.349 1208.04 29.7031C1208.15 30.0521 1208.32 30.3594 1208.53 30.625C1208.75 30.8906 1209.01 31.099 1209.32 31.25C1209.63 31.401 1209.99 31.4766 1210.38 31.4766C1210.89 31.4766 1211.33 31.3724 1211.68 31.1641C1212.03 30.9557 1212.34 30.6771 1212.61 30.3281L1213.49 31.0234C1213.3 31.2995 1213.07 31.5625 1212.79 31.8125C1212.51 32.0625 1212.16 32.2656 1211.75 32.4219C1211.34 32.5781 1210.86 32.6562 1210.31 32.6562ZM1218.67 31.4688C1219.01 31.4688 1219.33 31.3984 1219.62 31.2578C1219.91 31.1172 1220.15 30.9245 1220.34 30.6797C1220.52 30.4297 1220.63 30.1458 1220.66 29.8281H1222.03C1222.01 30.3281 1221.84 30.7943 1221.52 31.2266C1221.22 31.6536 1220.81 32 1220.31 32.2656C1219.81 32.526 1219.26 32.6562 1218.67 32.6562C1218.03 32.6562 1217.47 32.5443 1217 32.3203C1216.53 32.0964 1216.14 31.7891 1215.83 31.3984C1215.52 31.0078 1215.29 30.5599 1215.13 30.0547C1214.98 29.5443 1214.91 29.0052 1214.91 28.4375V28.1094C1214.91 27.5417 1214.98 27.0052 1215.13 26.5C1215.29 25.9896 1215.52 25.5391 1215.83 25.1484C1216.14 24.7578 1216.53 24.4505 1217 24.2266C1217.47 24.0026 1218.03 23.8906 1218.67 23.8906C1219.33 23.8906 1219.9 24.026 1220.4 24.2969C1220.89 24.5625 1221.28 24.9271 1221.56 25.3906C1221.85 25.849 1222.01 26.3698 1222.03 26.9531H1220.66C1220.63 26.6042 1220.53 26.2891 1220.36 26.0078C1220.19 25.7266 1219.96 25.5026 1219.67 25.3359C1219.39 25.1641 1219.05 25.0781 1218.67 25.0781C1218.22 25.0781 1217.85 25.1667 1217.55 25.3438C1217.25 25.5156 1217.01 25.75 1216.84 26.0469C1216.67 26.3385 1216.54 26.6641 1216.46 27.0234C1216.39 27.3776 1216.35 27.7396 1216.35 28.1094V28.4375C1216.35 28.8073 1216.39 29.1719 1216.46 29.5312C1216.53 29.8906 1216.66 30.2161 1216.83 30.5078C1217.01 30.7995 1217.24 31.0339 1217.54 31.2109C1217.84 31.3828 1218.22 31.4688 1218.67 31.4688ZM1227.2 24.0469V25.1562H1222.63V24.0469H1227.2ZM1224.17 21.9922H1225.62V30.4062C1225.62 30.6927 1225.66 30.9089 1225.75 31.0547C1225.84 31.2005 1225.95 31.2969 1226.09 31.3438C1226.24 31.3906 1226.39 31.4141 1226.55 31.4141C1226.67 31.4141 1226.79 31.4036 1226.92 31.3828C1227.06 31.3568 1227.16 31.3359 1227.23 31.3203L1227.24 32.5C1227.12 32.5365 1226.97 32.5703 1226.78 32.6016C1226.6 32.638 1226.38 32.6562 1226.12 32.6562C1225.76 32.6562 1225.44 32.5859 1225.14 32.4453C1224.84 32.3047 1224.61 32.0703 1224.43 31.7422C1224.26 31.4089 1224.17 30.9609 1224.17 30.3984V21.9922ZM1237.84 31.0547V26.7031C1237.84 26.3698 1237.78 26.0807 1237.64 25.8359C1237.51 25.5859 1237.31 25.3932 1237.05 25.2578C1236.78 25.1224 1236.45 25.0547 1236.06 25.0547C1235.7 25.0547 1235.38 25.1172 1235.1 25.2422C1234.83 25.3672 1234.62 25.5312 1234.46 25.7344C1234.31 25.9375 1234.24 26.1562 1234.24 26.3906H1232.79C1232.79 26.0885 1232.87 25.7891 1233.02 25.4922C1233.18 25.1953 1233.4 24.9271 1233.7 24.6875C1233.99 24.4427 1234.35 24.25 1234.76 24.1094C1235.18 23.9635 1235.64 23.8906 1236.15 23.8906C1236.76 23.8906 1237.31 23.9948 1237.77 24.2031C1238.25 24.4115 1238.62 24.7266 1238.88 25.1484C1239.15 25.5651 1239.29 26.0885 1239.29 26.7188V30.6562C1239.29 30.9375 1239.31 31.237 1239.36 31.5547C1239.41 31.8724 1239.49 32.1458 1239.59 32.375V32.5H1238.08C1238.01 32.3333 1237.95 32.112 1237.91 31.8359C1237.87 31.5547 1237.84 31.2943 1237.84 31.0547ZM1238.09 27.375L1238.11 28.3906H1236.65C1236.24 28.3906 1235.87 28.4245 1235.55 28.4922C1235.22 28.5547 1234.95 28.651 1234.74 28.7812C1234.52 28.9115 1234.35 29.0755 1234.24 29.2734C1234.12 29.4661 1234.06 29.6927 1234.06 29.9531C1234.06 30.2188 1234.12 30.4609 1234.24 30.6797C1234.36 30.8984 1234.54 31.0729 1234.78 31.2031C1235.03 31.3281 1235.33 31.3906 1235.68 31.3906C1236.12 31.3906 1236.51 31.2969 1236.85 31.1094C1237.19 30.9219 1237.46 30.6927 1237.66 30.4219C1237.86 30.151 1237.97 29.888 1237.99 29.6328L1238.6 30.3281C1238.57 30.5469 1238.47 30.7891 1238.31 31.0547C1238.14 31.3203 1237.93 31.5755 1237.66 31.8203C1237.39 32.0599 1237.07 32.2604 1236.7 32.4219C1236.34 32.5781 1235.93 32.6562 1235.47 32.6562C1234.9 32.6562 1234.39 32.5443 1233.96 32.3203C1233.53 32.0964 1233.2 31.7969 1232.96 31.4219C1232.73 31.0417 1232.61 30.6172 1232.61 30.1484C1232.61 29.6953 1232.7 29.2969 1232.88 28.9531C1233.05 28.6042 1233.31 28.3151 1233.64 28.0859C1233.97 27.8516 1234.38 27.6745 1234.84 27.5547C1235.31 27.4349 1235.84 27.375 1236.42 27.375H1238.09ZM1250.86 30.8594V20.5H1252.31V32.5H1250.99L1250.86 30.8594ZM1245.17 28.3672V28.2031C1245.17 27.5573 1245.25 26.9714 1245.41 26.4453C1245.57 25.9141 1245.8 25.4583 1246.09 25.0781C1246.38 24.6979 1246.74 24.4062 1247.14 24.2031C1247.55 23.9948 1248.01 23.8906 1248.52 23.8906C1249.05 23.8906 1249.51 23.9844 1249.91 24.1719C1250.31 24.3542 1250.65 24.6224 1250.92 24.9766C1251.2 25.3255 1251.43 25.7474 1251.59 26.2422C1251.75 26.737 1251.86 27.2969 1251.92 27.9219V28.6406C1251.87 29.2604 1251.75 29.8177 1251.59 30.3125C1251.43 30.8073 1251.2 31.2292 1250.92 31.5781C1250.65 31.9271 1250.31 32.1953 1249.91 32.3828C1249.51 32.5651 1249.04 32.6562 1248.5 32.6562C1248.01 32.6562 1247.55 32.5495 1247.14 32.3359C1246.74 32.1224 1246.38 31.8229 1246.09 31.4375C1245.8 31.0521 1245.57 30.599 1245.41 30.0781C1245.25 29.5521 1245.17 28.9818 1245.17 28.3672ZM1246.63 28.2031V28.3672C1246.63 28.7891 1246.67 29.1849 1246.75 29.5547C1246.84 29.9245 1246.97 30.25 1247.16 30.5312C1247.34 30.8125 1247.57 31.0339 1247.85 31.1953C1248.13 31.3516 1248.47 31.4297 1248.86 31.4297C1249.34 31.4297 1249.73 31.3281 1250.04 31.125C1250.35 30.9219 1250.6 30.6536 1250.79 30.3203C1250.98 29.987 1251.12 29.625 1251.23 29.2344V27.3516C1251.17 27.0651 1251.07 26.7891 1250.95 26.5234C1250.84 26.2526 1250.69 26.013 1250.5 25.8047C1250.32 25.5911 1250.09 25.4219 1249.82 25.2969C1249.56 25.1719 1249.24 25.1094 1248.88 25.1094C1248.48 25.1094 1248.14 25.1927 1247.85 25.3594C1247.57 25.5208 1247.34 25.7448 1247.16 26.0312C1246.97 26.3125 1246.84 26.6406 1246.75 27.0156C1246.67 27.3854 1246.63 27.7812 1246.63 28.2031ZM1256.13 24.0469V32.5H1254.68V24.0469H1256.13ZM1254.57 21.8047C1254.57 21.5703 1254.64 21.3724 1254.78 21.2109C1254.93 21.0495 1255.14 20.9688 1255.42 20.9688C1255.7 20.9688 1255.91 21.0495 1256.06 21.2109C1256.21 21.3724 1256.28 21.5703 1256.28 21.8047C1256.28 22.0286 1256.21 22.2214 1256.06 22.3828C1255.91 22.5391 1255.7 22.6172 1255.42 22.6172C1255.14 22.6172 1254.93 22.5391 1254.78 22.3828C1254.64 22.2214 1254.57 22.0286 1254.57 21.8047ZM1263.38 30.2578C1263.38 30.0495 1263.33 29.8568 1263.24 29.6797C1263.15 29.4974 1262.96 29.3333 1262.68 29.1875C1262.4 29.0365 1261.99 28.9062 1261.43 28.7969C1260.96 28.6979 1260.54 28.5807 1260.16 28.4453C1259.78 28.3099 1259.46 28.1458 1259.2 27.9531C1258.94 27.7604 1258.74 27.5339 1258.59 27.2734C1258.45 27.013 1258.38 26.7083 1258.38 26.3594C1258.38 26.026 1258.46 25.7109 1258.6 25.4141C1258.75 25.1172 1258.96 24.8542 1259.24 24.625C1259.51 24.3958 1259.84 24.2161 1260.23 24.0859C1260.61 23.9557 1261.04 23.8906 1261.52 23.8906C1262.19 23.8906 1262.77 24.0104 1263.25 24.25C1263.73 24.4896 1264.1 24.8099 1264.35 25.2109C1264.61 25.6068 1264.74 26.0469 1264.74 26.5312H1263.29C1263.29 26.2969 1263.22 26.0703 1263.08 25.8516C1262.94 25.6276 1262.74 25.4427 1262.48 25.2969C1262.22 25.151 1261.9 25.0781 1261.52 25.0781C1261.12 25.0781 1260.79 25.1406 1260.54 25.2656C1260.3 25.3854 1260.12 25.5391 1260 25.7266C1259.89 25.9141 1259.84 26.112 1259.84 26.3203C1259.84 26.4766 1259.86 26.6172 1259.92 26.7422C1259.97 26.862 1260.07 26.974 1260.21 27.0781C1260.35 27.1771 1260.55 27.2708 1260.81 27.3594C1261.06 27.4479 1261.39 27.5365 1261.78 27.625C1262.47 27.7812 1263.05 27.9688 1263.49 28.1875C1263.94 28.4062 1264.27 28.6745 1264.49 28.9922C1264.71 29.3099 1264.82 29.6953 1264.82 30.1484C1264.82 30.5182 1264.74 30.8568 1264.59 31.1641C1264.44 31.4714 1264.21 31.737 1263.92 31.9609C1263.64 32.1797 1263.29 32.3516 1262.89 32.4766C1262.5 32.5964 1262.05 32.6562 1261.56 32.6562C1260.81 32.6562 1260.18 32.5234 1259.67 32.2578C1259.15 31.9922 1258.76 31.6484 1258.49 31.2266C1258.23 30.8047 1258.09 30.3594 1258.09 29.8906H1259.55C1259.57 30.2865 1259.68 30.6016 1259.89 30.8359C1260.1 31.0651 1260.36 31.2292 1260.66 31.3281C1260.96 31.4219 1261.26 31.4688 1261.56 31.4688C1261.95 31.4688 1262.28 31.4167 1262.55 31.3125C1262.82 31.2083 1263.02 31.0651 1263.17 30.8828C1263.31 30.7005 1263.38 30.4922 1263.38 30.2578ZM1270.26 24.0469V25.1562H1265.69V24.0469H1270.26ZM1267.24 21.9922H1268.68V30.4062C1268.68 30.6927 1268.72 30.9089 1268.81 31.0547C1268.9 31.2005 1269.02 31.2969 1269.16 31.3438C1269.3 31.3906 1269.45 31.4141 1269.61 31.4141C1269.73 31.4141 1269.86 31.4036 1269.99 31.3828C1270.12 31.3568 1270.22 31.3359 1270.29 31.3203L1270.3 32.5C1270.18 32.5365 1270.03 32.5703 1269.84 32.6016C1269.66 32.638 1269.44 32.6562 1269.18 32.6562C1268.83 32.6562 1268.5 32.5859 1268.2 32.4453C1267.91 32.3047 1267.67 32.0703 1267.49 31.7422C1267.32 31.4089 1267.24 30.9609 1267.24 30.3984V21.9922ZM1273.4 25.375V32.5H1271.95V24.0469H1273.36L1273.4 25.375ZM1276.04 24L1276.03 25.3438C1275.91 25.3177 1275.8 25.3021 1275.69 25.2969C1275.58 25.2865 1275.46 25.2812 1275.33 25.2812C1275 25.2812 1274.7 25.3333 1274.45 25.4375C1274.19 25.5417 1273.97 25.6875 1273.8 25.875C1273.62 26.0625 1273.48 26.2865 1273.38 26.5469C1273.28 26.8021 1273.21 27.0833 1273.18 27.3906L1272.77 27.625C1272.77 27.1146 1272.82 26.6354 1272.92 26.1875C1273.03 25.7396 1273.19 25.3438 1273.4 25C1273.61 24.651 1273.88 24.3802 1274.21 24.1875C1274.55 23.9896 1274.94 23.8906 1275.4 23.8906C1275.5 23.8906 1275.62 23.9036 1275.76 23.9297C1275.89 23.9505 1275.99 23.974 1276.04 24ZM1278.95 24.0469V32.5H1277.49V24.0469H1278.95ZM1277.38 21.8047C1277.38 21.5703 1277.45 21.3724 1277.59 21.2109C1277.74 21.0495 1277.95 20.9688 1278.24 20.9688C1278.51 20.9688 1278.72 21.0495 1278.87 21.2109C1279.02 21.3724 1279.09 21.5703 1279.09 21.8047C1279.09 22.0286 1279.02 22.2214 1278.87 22.3828C1278.72 22.5391 1278.51 22.6172 1278.24 22.6172C1277.95 22.6172 1277.74 22.5391 1277.59 22.3828C1277.45 22.2214 1277.38 22.0286 1277.38 21.8047ZM1284.65 31.4688C1284.99 31.4688 1285.31 31.3984 1285.6 31.2578C1285.89 31.1172 1286.13 30.9245 1286.32 30.6797C1286.51 30.4297 1286.62 30.1458 1286.64 29.8281H1288.02C1287.99 30.3281 1287.82 30.7943 1287.51 31.2266C1287.2 31.6536 1286.8 32 1286.3 32.2656C1285.8 32.526 1285.25 32.6562 1284.65 32.6562C1284.01 32.6562 1283.46 32.5443 1282.99 32.3203C1282.52 32.0964 1282.13 31.7891 1281.81 31.3984C1281.51 31.0078 1281.27 30.5599 1281.12 30.0547C1280.97 29.5443 1280.89 29.0052 1280.89 28.4375V28.1094C1280.89 27.5417 1280.97 27.0052 1281.12 26.5C1281.27 25.9896 1281.51 25.5391 1281.81 25.1484C1282.13 24.7578 1282.52 24.4505 1282.99 24.2266C1283.46 24.0026 1284.01 23.8906 1284.65 23.8906C1285.31 23.8906 1285.89 24.026 1286.38 24.2969C1286.88 24.5625 1287.27 24.9271 1287.55 25.3906C1287.83 25.849 1287.99 26.3698 1288.02 26.9531H1286.64C1286.62 26.6042 1286.52 26.2891 1286.34 26.0078C1286.18 25.7266 1285.95 25.5026 1285.66 25.3359C1285.37 25.1641 1285.03 25.0781 1284.65 25.0781C1284.21 25.0781 1283.83 25.1667 1283.53 25.3438C1283.24 25.5156 1283 25.75 1282.82 26.0469C1282.65 26.3385 1282.52 26.6641 1282.45 27.0234C1282.37 27.3776 1282.34 27.7396 1282.34 28.1094V28.4375C1282.34 28.8073 1282.37 29.1719 1282.45 29.5312C1282.52 29.8906 1282.64 30.2161 1282.81 30.5078C1282.99 30.7995 1283.23 31.0339 1283.52 31.2109C1283.83 31.3828 1284.2 31.4688 1284.65 31.4688ZM1293.18 24.0469V25.1562H1288.61V24.0469H1293.18ZM1290.16 21.9922H1291.6V30.4062C1291.6 30.6927 1291.65 30.9089 1291.74 31.0547C1291.82 31.2005 1291.94 31.2969 1292.08 31.3438C1292.22 31.3906 1292.37 31.4141 1292.53 31.4141C1292.65 31.4141 1292.78 31.4036 1292.91 31.3828C1293.04 31.3568 1293.14 31.3359 1293.21 31.3203L1293.22 32.5C1293.11 32.5365 1292.95 32.5703 1292.77 32.6016C1292.58 32.638 1292.36 32.6562 1292.1 32.6562C1291.75 32.6562 1291.42 32.5859 1291.13 32.4453C1290.83 32.3047 1290.59 32.0703 1290.42 31.7422C1290.24 31.4089 1290.16 30.9609 1290.16 30.3984V21.9922Z" fill="black" fill-opacity="0.25"/>
<path d="M1367.89 24.0723H1366.89C1366.82 24.0723 1366.76 24.1057 1366.72 24.1607L1362.91 29.4053L1359.11 24.1607C1359.07 24.1057 1359 24.0723 1358.93 24.0723H1357.93C1357.84 24.0723 1357.79 24.1714 1357.84 24.2424L1362.56 30.7526C1362.74 30.9883 1363.09 30.9883 1363.26 30.7526L1367.98 24.2424C1368.03 24.1714 1367.98 24.0723 1367.89 24.0723Z" fill="black" fill-opacity="0.25"/>
<defs>
<clipPath id="clip0_174_1180">
<rect width="14" height="14" fill="white" transform="translate(1133.82 20.5)"/>
</clipPath>
</defs>
</svg>
